Radley-Regular-Kernagic.ufo
<glyph name="exclam" format="1">
  <advance width="666"></advance>
  <unicode hex="0021"></unicode>
  <outline>
    <contour>
      <point x="319" y="1312" type="curve" smooth="yes"></point>
      <point x="392" y="1312"></point>
      <point x="449" y="1278"></point>
      <point x="449" y="1199" type="curve" smooth="yes"></point>
      <point x="449" y="1023"></point>
      <point x="384" y="647"></point>
      <point x="357" y="466" type="curve" smooth="yes"></point>
      <point x="354" y="447"></point>
      <point x="352" y="356"></point>
      <point x="323" y="356" type="curve" smooth="yes"></point>
      <point x="289" y="356"></point>
      <point x="291" y="427"></point>
      <point x="288" y="450" type="curve" smooth="yes"></point>
      <point x="263" y="644"></point>
      <point x="193" y="1009"></point>
      <point x="193" y="1201" type="curve" smooth="yes"></point>
      <point x="193" y="1283"></point>
      <point x="242" y="1312"></point>
    </contour>
    <contour>
      <point x="202" y="92" type="curve" smooth="yes"></point>
      <point x="202" y="159"></point>
      <point x="255" y="216"></point>
      <point x="323" y="216" type="curve" smooth="yes"></point>
      <point x="391" y="216"></point>
      <point x="447" y="160"></point>
      <point x="447" y="92" type="curve" smooth="yes"></point>
      <point x="447" y="24"></point>
      <point x="390" y="-29"></point>
      <point x="323" y="-29" type="curve" smooth="yes"></point>
      <point x="256" y="-29"></point>
      <point x="202" y="25"></point>
    </contour>
  </outline>
</glyph>
<glyph name="quotedbl" format="1">
  <advance width="759"></advance>
  <unicode hex="0022"></unicode>
  <outline>
    <contour>
      <point x="524" y="753" type="curve"></point>
      <point x="491" y="829"></point>
      <point x="435" y="1137"></point>
      <point x="435" y="1200" type="curve" smooth="yes"></point>
      <point x="435" y="1264"></point>
      <point x="473" y="1302"></point>
      <point x="537" y="1302" type="curve" smooth="yes"></point>
      <point x="601" y="1302"></point>
      <point x="639" y="1264"></point>
      <point x="639" y="1200" type="curve" smooth="yes"></point>
      <point x="639" y="1168"></point>
      <point x="587" y="751"></point>
    </contour>
    <contour>
      <point x="208" y="753" type="curve"></point>
      <point x="176" y="824"></point>
      <point x="118" y="1139"></point>
      <point x="118" y="1200" type="curve" smooth="yes"></point>
      <point x="118" y="1264"></point>
      <point x="156" y="1302"></point>
      <point x="220" y="1302" type="curve" smooth="yes"></point>
      <point x="284" y="1302"></point>
      <point x="322" y="1264"></point>
      <point x="322" y="1200" type="curve" smooth="yes"></point>
      <point x="322" y="1107"></point>
      <point x="262" y="752"></point>
    </contour>
  </outline>
</glyph>
<glyph name="numbersign" format="1">
  <advance width="1143"></advance>
  <unicode hex="0023"></unicode>
  <outline>
    <contour>
      <point x="632" y="390" type="curve"></point>
      <point x="359" y="390" type="line"></point>
      <point x="314" y="210"></point>
      <point x="281" y="29"></point>
      <point x="241" y="-151" type="curve" smooth="yes"></point>
      <point x="231" y="-198"></point>
      <point x="212" y="-239"></point>
      <point x="158" y="-239" type="curve" smooth="yes"></point>
      <point x="118" y="-239"></point>
      <point x="93" y="-184"></point>
      <point x="93" y="-150" type="curve" smooth="yes"></point>
      <point x="93" y="-108"></point>
      <point x="221" y="320"></point>
      <point x="241" y="390" type="curve"></point>
      <point x="222" y="390"></point>
      <point x="194" y="387"></point>
      <point x="165" y="387" type="curve" smooth="yes"></point>
      <point x="112" y="387"></point>
      <point x="56" y="396"></point>
      <point x="56" y="447" type="curve" smooth="yes"></point>
      <point x="56" y="495"></point>
      <point x="122" y="504"></point>
      <point x="184" y="504" type="curve" smooth="yes"></point>
      <point x="219" y="504"></point>
      <point x="254" y="501"></point>
      <point x="272" y="501" type="curve"></point>
      <point x="320" y="674" type="line"></point>
      <point x="299" y="674"></point>
      <point x="264" y="670"></point>
      <point x="229" y="670" type="curve" smooth="yes"></point>
      <point x="171" y="670"></point>
      <point x="111" y="680"></point>
      <point x="111" y="731" type="curve" smooth="yes"></point>
      <point x="111" y="779"></point>
      <point x="183" y="789"></point>
      <point x="249" y="789" type="curve" smooth="yes"></point>
      <point x="292" y="789"></point>
      <point x="332" y="785"></point>
      <point x="351" y="785" type="curve"></point>
      <point x="401" y="961"></point>
      <point x="459" y="1134"></point>
      <point x="479" y="1316" type="curve" smooth="yes"></point>
      <point x="483" y="1352"></point>
      <point x="535" y="1362"></point>
      <point x="563" y="1362" type="curve" smooth="yes"></point>
      <point x="624" y="1362"></point>
      <point x="630" y="1332"></point>
      <point x="630" y="1280" type="curve" smooth="yes"></point>
      <point x="630" y="1249"></point>
      <point x="484" y="840"></point>
      <point x="467" y="785" type="curve"></point>
      <point x="736" y="785" type="line"></point>
      <point x="775" y="946"></point>
      <point x="819" y="1111"></point>
      <point x="844" y="1275" type="curve" smooth="yes"></point>
      <point x="853" y="1333"></point>
      <point x="869" y="1362"></point>
      <point x="935" y="1362" type="curve" smooth="yes"></point>
      <point x="991" y="1362"></point>
      <point x="1012" y="1333"></point>
      <point x="1012" y="1280" type="curve" smooth="yes"></point>
      <point x="1012" y="1241"></point>
      <point x="876" y="843"></point>
      <point x="858" y="785" type="curve"></point>
      <point x="875" y="785"></point>
      <point x="905" y="787"></point>
      <point x="938" y="787" type="curve" smooth="yes"></point>
      <point x="998" y="787"></point>
      <point x="1064" y="779"></point>
      <point x="1064" y="732" type="curve" smooth="yes"></point>
      <point x="1064" y="680"></point>
      <point x="998" y="669"></point>
      <point x="933" y="669" type="curve" smooth="yes"></point>
      <point x="890" y="669"></point>
      <point x="847" y="674"></point>
      <point x="825" y="674" type="curve"></point>
      <point x="777" y="501" type="line"></point>
      <point x="795" y="501"></point>
      <point x="830" y="504"></point>
      <point x="867" y="504" type="curve" smooth="yes"></point>
      <point x="934" y="504"></point>
      <point x="1010" y="494"></point>
      <point x="1010" y="441" type="curve" smooth="yes"></point>
      <point x="1010" y="394"></point>
      <point x="942" y="384"></point>
      <point x="873" y="384" type="curve" smooth="yes"></point>
      <point x="822" y="384"></point>
      <point x="770" y="390"></point>
      <point x="749" y="390" type="curve"></point>
      <point x="704" y="211"></point>
      <point x="671" y="31"></point>
      <point x="632" y="-149" type="curve" smooth="yes"></point>
      <point x="621" y="-198"></point>
      <point x="595" y="-239"></point>
      <point x="540" y="-239" type="curve" smooth="yes"></point>
      <point x="500" y="-239"></point>
      <point x="475" y="-184"></point>
      <point x="475" y="-150" type="curve" smooth="yes"></point>
      <point x="475" y="-110"></point>
      <point x="612" y="322"></point>
    </contour>
    <contour>
      <point x="708" y="674" type="line"></point>
      <point x="434" y="674" type="line"></point>
      <point x="387" y="501" type="line"></point>
      <point x="663" y="501" type="line"></point>
    </contour>
  </outline>
</glyph>
<glyph name="dollar" format="1">
  <advance width="1160"></advance>
  <unicode hex="0024"></unicode>
  <outline>
    <contour>
      <point x="511" y="-141" type="curve"></point>
      <point x="513" y="-26" type="line"></point>
      <point x="376" y="-18"></point>
      <point x="241" y="21"></point>
      <point x="145" y="80" type="curve"></point>
      <point x="166" y="366" type="line"></point>
      <point x="177" y="369"></point>
      <point x="184" y="371"></point>
      <point x="187" y="371" type="curve" smooth="yes"></point>
      <point x="212" y="371"></point>
      <point x="226" y="317"></point>
      <point x="231" y="282" type="curve" smooth="yes"></point>
      <point x="247" y="159"></point>
      <point x="376" y="72"></point>
      <point x="521" y="45" type="curve"></point>
      <point x="521" y="502" type="line"></point>
      <point x="382" y="581" type="line" smooth="yes"></point>
      <point x="235" y="664"></point>
      <point x="167" y="763"></point>
      <point x="167" y="886" type="curve" smooth="yes"></point>
      <point x="167" y="1096"></point>
      <point x="337" y="1187"></point>
      <point x="532" y="1200" type="curve"></point>
      <point x="531" y="1232"></point>
      <point x="531" y="1261"></point>
      <point x="531" y="1285" type="curve" smooth="yes"></point>
      <point x="531" y="1385"></point>
      <point x="539" y="1422"></point>
      <point x="579" y="1422" type="curve" smooth="yes"></point>
      <point x="607" y="1422"></point>
      <point x="624" y="1400"></point>
      <point x="624" y="1278" type="curve" smooth="yes"></point>
      <point x="624" y="1251"></point>
      <point x="624" y="1226"></point>
      <point x="623" y="1201" type="curve"></point>
      <point x="723" y="1196"></point>
      <point x="823" y="1173"></point>
      <point x="903" y="1138" type="curve"></point>
      <point x="933" y="881" type="line"></point>
      <point x="921" y="878"></point>
      <point x="912" y="876"></point>
      <point x="906" y="876" type="curve" smooth="yes"></point>
      <point x="880" y="876"></point>
      <point x="856" y="928"></point>
      <point x="849" y="961" type="curve" smooth="yes"></point>
      <point x="827" y="1066"></point>
      <point x="729" y="1120"></point>
      <point x="622" y="1136" type="curve"></point>
      <point x="619" y="1053"></point>
      <point x="616" y="943"></point>
      <point x="613" y="732" type="curve"></point>
      <point x="767" y="641" type="line" smooth="yes"></point>
      <point x="956" y="529"></point>
      <point x="1003" y="455"></point>
      <point x="1003" y="319" type="curve" smooth="yes"></point>
      <point x="1003" y="81"></point>
      <point x="819" y="-16"></point>
      <point x="608" y="-27" type="curve"></point>
      <point x="608" y="-125" type="line" smooth="yes"></point>
      <point x="608" y="-205"></point>
      <point x="578" y="-228"></point>
      <point x="556" y="-228" type="curve" smooth="yes"></point>
      <point x="536" y="-228"></point>
      <point x="512" y="-197"></point>
    </contour>
    <contour>
      <point x="610" y="452" type="curve"></point>
      <point x="609" y="335"></point>
      <point x="608" y="197"></point>
      <point x="608" y="36" type="curve"></point>
      <point x="728" y="36"></point>
      <point x="829" y="95"></point>
      <point x="829" y="222" type="curve" smooth="yes"></point>
      <point x="829" y="318"></point>
      <point x="765" y="364"></point>
    </contour>
    <contour>
      <point x="526" y="785" type="line"></point>
      <point x="526" y="1138" type="line"></point>
      <point x="421" y="1130"></point>
      <point x="324" y="1075"></point>
      <point x="324" y="990" type="curve" smooth="yes"></point>
      <point x="324" y="936"></point>
      <point x="356" y="887"></point>
      <point x="431" y="842" type="curve" smooth="yes"></point>
    </contour>
  </outline>
</glyph>
<glyph name="percent" format="1">
  <advance width="1697"></advance>
  <unicode hex="0025"></unicode>
  <outline>
    <contour>
      <point x="1447" y="337" type="curve" smooth="yes"></point>
      <point x="1447" y="541"></point>
      <point x="1394" y="677"></point>
      <point x="1283" y="677" type="curve" smooth="yes"></point>
      <point x="1183" y="677"></point>
      <point x="1133" y="555"></point>
      <point x="1133" y="363" type="curve" smooth="yes"></point>
      <point x="1133" y="172"></point>
      <point x="1186" y="41"></point>
      <point x="1299" y="41" type="curve" smooth="yes"></point>
      <point x="1399" y="41"></point>
      <point x="1447" y="158"></point>
    </contour>
    <contour>
      <point x="980" y="358" type="curve" smooth="yes"></point>
      <point x="980" y="563"></point>
      <point x="1098" y="735"></point>
      <point x="1287" y="735" type="curve" smooth="yes"></point>
      <point x="1478" y="735"></point>
      <point x="1600" y="557"></point>
      <point x="1600" y="349" type="curve" smooth="yes"></point>
      <point x="1600" y="149"></point>
      <point x="1485" y="-18"></point>
      <point x="1299" y="-22" type="curve"></point>
      <point x="1101" y="-22"></point>
      <point x="980" y="152"></point>
    </contour>
    <contour>
      <point x="436" y="-138" type="curve"></point>
      <point x="404" y="-138"></point>
      <point x="375" y="-125"></point>
      <point x="355" y="-108" type="curve"></point>
      <point x="381" y="-60"></point>
      <point x="408" y="-14"></point>
      <point x="436" y="34" type="curve"></point>
      <point x="965" y="1017" type="line"></point>
      <point x="1034" y="1136"></point>
      <point x="1087" y="1315"></point>
      <point x="1184" y="1396" type="curve"></point>
      <point x="1235" y="1396"></point>
      <point x="1257" y="1381"></point>
      <point x="1277" y="1368" type="curve"></point>
      <point x="1200" y="1238" type="line"></point>
      <point x="1072" y="1014"></point>
      <point x="808" y="581"></point>
      <point x="556" y="18" type="curve"></point>
      <point x="520" y="-54"></point>
      <point x="476" y="-98"></point>
    </contour>
    <contour>
      <point x="60" y="950" type="curve" smooth="yes"></point>
      <point x="60" y="1155"></point>
      <point x="178" y="1327"></point>
      <point x="368" y="1327" type="curve" smooth="yes"></point>
      <point x="559" y="1327"></point>
      <point x="681" y="1149"></point>
      <point x="681" y="941" type="curve" smooth="yes"></point>
      <point x="681" y="742"></point>
      <point x="566" y="574"></point>
      <point x="380" y="571" type="curve"></point>
      <point x="182" y="571"></point>
      <point x="60" y="745"></point>
    </contour>
    <contour>
      <point x="528" y="929" type="curve" smooth="yes"></point>
      <point x="528" y="1133"></point>
      <point x="475" y="1270"></point>
      <point x="364" y="1270" type="curve" smooth="yes"></point>
      <point x="263" y="1270"></point>
      <point x="213" y="1148"></point>
      <point x="213" y="956" type="curve" smooth="yes"></point>
      <point x="213" y="765"></point>
      <point x="266" y="633"></point>
      <point x="379" y="633" type="curve" smooth="yes"></point>
      <point x="480" y="633"></point>
      <point x="528" y="750"></point>
    </contour>
  </outline>
</glyph>
<glyph name="ampersand" format="1">
  <advance width="1324"></advance>
  <unicode hex="0026"></unicode>
  <outline>
    <contour>
      <point x="934" y="886" type="curve"></point>
      <point x="1343" y="886" type="line"></point>
      <point x="1344" y="868"></point>
      <point x="1344" y="851"></point>
      <point x="1344" y="835" type="curve"></point>
      <point x="1320" y="815"></point>
      <point x="1234" y="813"></point>
      <point x="1211" y="776" type="curve" smooth="yes"></point>
      <point x="1127" y="643"></point>
      <point x="1091" y="488"></point>
      <point x="970" y="296" type="curve"></point>
      <point x="1031" y="219"></point>
      <point x="1085" y="165"></point>
      <point x="1147" y="165" type="curve" smooth="yes"></point>
      <point x="1202" y="165"></point>
      <point x="1262" y="208"></point>
      <point x="1337" y="318" type="curve"></point>
      <point x="1396" y="275" type="line"></point>
      <point x="1345" y="62"></point>
      <point x="1242" y="-28"></point>
      <point x="1130" y="-28" type="curve" smooth="yes"></point>
      <point x="1031" y="-28"></point>
      <point x="924" y="40"></point>
      <point x="846" y="152" type="curve"></point>
      <point x="715" y="25"></point>
      <point x="598" y="-26"></point>
      <point x="438" y="-26" type="curve" smooth="yes"></point>
      <point x="175" y="-26"></point>
      <point x="23" y="136"></point>
      <point x="23" y="319" type="curve" smooth="yes"></point>
      <point x="23" y="502"></point>
      <point x="135" y="610"></point>
      <point x="361" y="758" type="curve"></point>
      <point x="260" y="870"></point>
      <point x="214" y="960"></point>
      <point x="214" y="1042" type="curve" smooth="yes"></point>
      <point x="214" y="1209.44"></point>
      <point x="410" y="1322.32"></point>
      <point x="584" y="1322.32" type="curve" smooth="yes"></point>
      <point x="720" y="1322.32"></point>
      <point x="842" y="1252.64"></point>
      <point x="842" y="1085" type="curve" smooth="yes"></point>
      <point x="842" y="977"></point>
      <point x="738" y="911"></point>
      <point x="552" y="799" type="curve"></point>
      <point x="657" y="681"></point>
      <point x="788" y="509"></point>
      <point x="919" y="357" type="curve"></point>
      <point x="976" y="457"></point>
      <point x="1021" y="571"></point>
      <point x="1048" y="692" type="curve"></point>
      <point x="1056" y="712"></point>
      <point x="1060" y="728"></point>
      <point x="1060" y="741" type="curve" smooth="yes"></point>
      <point x="1060" y="784"></point>
      <point x="993" y="813"></point>
      <point x="934" y="832" type="curve"></point>
      <point x="933" y="840"></point>
      <point x="932" y="848"></point>
      <point x="932" y="858" type="curve" smooth="yes"></point>
      <point x="932" y="866"></point>
      <point x="933" y="875"></point>
    </contour>
    <contour>
      <point x="216" y="435" type="curve" smooth="yes"></point>
      <point x="216" y="256"></point>
      <point x="358" y="102"></point>
      <point x="561" y="102" type="curve" smooth="yes"></point>
      <point x="647" y="102"></point>
      <point x="711" y="132"></point>
      <point x="795" y="209" type="curve"></point>
      <point x="667" y="374"></point>
      <point x="509" y="576"></point>
      <point x="407" y="702" type="curve"></point>
      <point x="276" y="612"></point>
      <point x="216" y="531"></point>
    </contour>
    <contour>
      <point x="377" y="1104" type="curve" smooth="yes"></point>
      <point x="377" y="1035"></point>
      <point x="425" y="951"></point>
      <point x="508" y="849" type="curve"></point>
      <point x="628" y="918"></point>
      <point x="699" y="984"></point>
      <point x="699" y="1071" type="curve" smooth="yes"></point>
      <point x="699" y="1151"></point>
      <point x="635" y="1250"></point>
      <point x="547" y="1250" type="curve" smooth="yes"></point>
      <point x="449" y="1250"></point>
      <point x="377" y="1183"></point>
    </contour>
  </outline>
</glyph>
<glyph name="quotesingle" format="1">
  <advance width="655"></advance>
  <unicode hex="0027"></unicode>
  <outline>
    <contour>
      <point x="308" y="753" type="curve"></point>
      <point x="276" y="828"></point>
      <point x="219" y="1138"></point>
      <point x="219" y="1200" type="curve" smooth="yes"></point>
      <point x="219" y="1264"></point>
      <point x="257" y="1302"></point>
      <point x="321" y="1302" type="curve" smooth="yes"></point>
      <point x="385" y="1302"></point>
      <point x="422" y="1264"></point>
      <point x="422" y="1200" type="curve" smooth="yes"></point>
      <point x="422" y="1106"></point>
      <point x="364" y="752"></point>
    </contour>
  </outline>
</glyph>
<glyph name="parenleft" format="1">
  <advance width="762"></advance>
  <unicode hex="0028"></unicode>
  <outline>
    <contour>
      <point x="686" y="-208" type="curve"></point>
      <point x="633" y="-268" type="line"></point>
      <point x="306" y="-119"></point>
      <point x="167" y="229"></point>
      <point x="167" y="571" type="curve" smooth="yes"></point>
      <point x="167" y="913"></point>
      <point x="305" y="1261"></point>
      <point x="633" y="1409" type="curve"></point>
      <point x="686" y="1350" type="line"></point>
      <point x="409" y="1187"></point>
      <point x="299" y="878"></point>
      <point x="299" y="571" type="curve" smooth="yes"></point>
      <point x="299" y="262"></point>
      <point x="409" y="-41"></point>
    </contour>
  </outline>
</glyph>
<glyph name="parenright" format="1">
  <advance width="869"></advance>
  <unicode hex="0029"></unicode>
  <outline>
    <contour>
      <point x="218" y="1350" type="curve"></point>
      <point x="228" y="1376"></point>
      <point x="250" y="1393"></point>
      <point x="271" y="1409" type="curve"></point>
      <point x="598" y="1261"></point>
      <point x="737" y="913"></point>
      <point x="737" y="571" type="curve" smooth="yes"></point>
      <point x="737" y="229"></point>
      <point x="598" y="-119"></point>
      <point x="271" y="-268" type="curve"></point>
      <point x="250" y="-252"></point>
      <point x="228" y="-234"></point>
      <point x="218" y="-208" type="curve"></point>
      <point x="492" y="-35"></point>
      <point x="605" y="258"></point>
      <point x="605" y="571" type="curve" smooth="yes"></point>
      <point x="605" y="881"></point>
      <point x="493" y="1180"></point>
    </contour>
  </outline>
</glyph>
<glyph name="asterisk" format="1">
  <advance width="1109"></advance>
  <unicode hex="002A"></unicode>
  <outline>
    <contour>
      <point x="652" y="1221" type="curve" smooth="yes"></point>
      <point x="652" y="1095"></point>
      <point x="618" y="946"></point>
      <point x="602" y="820" type="curve"></point>
      <point x="666" y="853"></point>
      <point x="933" y="1009"></point>
      <point x="992" y="1009" type="curve" smooth="yes"></point>
      <point x="1044" y="1009"></point>
      <point x="1083" y="961"></point>
      <point x="1083" y="911" type="curve" smooth="yes"></point>
      <point x="1083" y="869"></point>
      <point x="1051" y="833"></point>
      <point x="1010" y="824" type="curve" smooth="yes"></point>
      <point x="630" y="741" type="line"></point>
      <point x="680" y="685"></point>
      <point x="912" y="467"></point>
      <point x="912" y="389" type="curve" smooth="yes"></point>
      <point x="912" y="339"></point>
      <point x="865" y="295"></point>
      <point x="815" y="295" type="curve" smooth="yes"></point>
      <point x="781" y="295"></point>
      <point x="749" y="316"></point>
      <point x="734" y="346" type="curve" smooth="yes"></point>
      <point x="561" y="695" type="line"></point>
      <point x="387" y="346" type="line" smooth="yes"></point>
      <point x="372" y="316"></point>
      <point x="341" y="295"></point>
      <point x="306" y="295" type="curve" smooth="yes"></point>
      <point x="256" y="295"></point>
      <point x="209" y="339"></point>
      <point x="209" y="389" type="curve" smooth="yes"></point>
      <point x="209" y="467"></point>
      <point x="441" y="685"></point>
      <point x="491" y="741" type="curve"></point>
      <point x="111" y="824" type="line" smooth="yes"></point>
      <point x="71" y="833"></point>
      <point x="39" y="869"></point>
      <point x="39" y="911" type="curve" smooth="yes"></point>
      <point x="39" y="961"></point>
      <point x="78" y="1009"></point>
      <point x="129" y="1009" type="curve" smooth="yes"></point>
      <point x="188" y="1009"></point>
      <point x="455" y="853"></point>
      <point x="519" y="820" type="curve"></point>
      <point x="502" y="948"></point>
      <point x="467" y="1098"></point>
      <point x="467" y="1226" type="curve" smooth="yes"></point>
      <point x="467" y="1276"></point>
      <point x="514" y="1309"></point>
      <point x="561" y="1309" type="curve" smooth="yes"></point>
      <point x="611" y="1309"></point>
      <point x="652" y="1271"></point>
    </contour>
  </outline>
</glyph>
<glyph name="plus" format="1">
  <advance width="1143"></advance>
  <unicode hex="002B"></unicode>
  <outline>
    <contour>
      <point x="109" y="618" type="curve"></point>
      <point x="153" y="635"></point>
      <point x="200" y="639"></point>
      <point x="293" y="639" type="curve" smooth="yes"></point>
      <point x="484" y="639" type="line"></point>
      <point x="484" y="828" type="line" smooth="yes"></point>
      <point x="484" y="906"></point>
      <point x="485" y="963"></point>
      <point x="492" y="1012" type="curve"></point>
      <point x="510" y="1014"></point>
      <point x="531" y="1015"></point>
      <point x="552" y="1015" type="curve" smooth="yes"></point>
      <point x="573" y="1015"></point>
      <point x="592" y="1015"></point>
      <point x="610" y="1012" type="curve"></point>
      <point x="617" y="964"></point>
      <point x="619" y="906"></point>
      <point x="619" y="830" type="curve" smooth="yes"></point>
      <point x="619" y="639" type="line"></point>
      <point x="808" y="639" type="line" smooth="yes"></point>
      <point x="885" y="639"></point>
      <point x="943" y="636"></point>
      <point x="992" y="629" type="curve"></point>
      <point x="994" y="611"></point>
      <point x="995" y="591"></point>
      <point x="995" y="570" type="curve" smooth="yes"></point>
      <point x="995" y="549"></point>
      <point x="994" y="530"></point>
      <point x="992" y="512" type="curve"></point>
      <point x="943" y="506"></point>
      <point x="886" y="505"></point>
      <point x="808" y="505" type="curve" smooth="yes"></point>
      <point x="619" y="505" type="line"></point>
      <point x="619" y="315" type="line" smooth="yes"></point>
      <point x="619" y="238"></point>
      <point x="616" y="181"></point>
      <point x="609" y="132" type="curve"></point>
      <point x="590" y="130"></point>
      <point x="570" y="129"></point>
      <point x="550" y="129" type="curve" smooth="yes"></point>
      <point x="528" y="129"></point>
      <point x="509" y="130"></point>
      <point x="491" y="132" type="curve"></point>
      <point x="485" y="181"></point>
      <point x="484" y="237"></point>
      <point x="484" y="315" type="curve" smooth="yes"></point>
      <point x="484" y="505" type="line"></point>
      <point x="161" y="505" type="line"></point>
      <point x="111" y="535"></point>
      <point x="109" y="568"></point>
    </contour>
  </outline>
</glyph>
<glyph name="comma" format="1">
  <advance width="634"></advance>
  <unicode hex="002C"></unicode>
  <outline>
    <contour>
      <point x="152" y="-268" type="curve"></point>
      <point x="143" y="-253"></point>
      <point x="134" y="-236"></point>
      <point x="134" y="-208" type="curve"></point>
      <point x="238" y="-174"></point>
      <point x="354" y="-153"></point>
      <point x="354" y="-23" type="curve"></point>
      <point x="335" y="22"></point>
      <point x="305" y="47"></point>
      <point x="252" y="56" type="curve" smooth="yes"></point>
      <point x="189" y="66"></point>
      <point x="154" y="110"></point>
      <point x="154" y="174" type="curve" smooth="yes"></point>
      <point x="154" y="252"></point>
      <point x="209" y="311"></point>
      <point x="294" y="311" type="curve" smooth="yes"></point>
      <point x="400" y="311"></point>
      <point x="487" y="217"></point>
      <point x="487" y="45" type="curve" smooth="yes"></point>
      <point x="487" y="-161"></point>
      <point x="330" y="-265"></point>
    </contour>
  </outline>
</glyph>
<glyph name="hyphen" format="1">
  <advance width="952"></advance>
  <unicode hex="002D"></unicode>
  <outline>
    <contour>
      <point x="763" y="402" type="line"></point>
      <point x="161" y="402" type="line"></point>
      <point x="161" y="530" type="line"></point>
      <point x="763" y="530" type="line"></point>
    </contour>
  </outline>
</glyph>
<glyph name="period" format="1">
  <advance width="666"></advance>
  <unicode hex="002E"></unicode>
  <outline>
    <contour>
      <point x="341" y="251" type="curve" smooth="yes"></point>
      <point x="418" y="251"></point>
      <point x="479" y="189"></point>
      <point x="479" y="116" type="curve" smooth="yes"></point>
      <point x="479" y="44"></point>
      <point x="418" y="-20"></point>
      <point x="341" y="-20" type="curve" smooth="yes"></point>
      <point x="265" y="-20"></point>
      <point x="204" y="42"></point>
      <point x="204" y="116" type="curve" smooth="yes"></point>
      <point x="204" y="189"></point>
      <point x="265" y="251"></point>
    </contour>
  </outline>
</glyph>
<glyph name="slash" format="1">
  <advance width="857"></advance>
  <unicode hex="002F"></unicode>
  <outline>
    <contour>
      <point x="750" y="1378" type="curve"></point>
      <point x="634" y="965"></point>
      <point x="421" y="507"></point>
      <point x="278" y="89" type="curve" smooth="yes"></point>
      <point x="260" y="37"></point>
      <point x="239" y="-15"></point>
      <point x="216" y="-65" type="curve"></point>
      <point x="200" y="-69"></point>
      <point x="184" y="-70"></point>
      <point x="168" y="-70" type="curve" smooth="yes"></point>
      <point x="140" y="-70" type="line"></point>
      <point x="136" y="-54"></point>
      <point x="135" y="-37"></point>
      <point x="135" y="-21" type="curve" smooth="yes"></point>
      <point x="135" y="24"></point>
      <point x="148" y="67"></point>
      <point x="164" y="109" type="curve" smooth="yes"></point>
      <point x="533" y="1089" type="line" smooth="yes"></point>
      <point x="560" y="1160"></point>
      <point x="609" y="1370"></point>
      <point x="670" y="1402" type="curve"></point>
      <point x="699" y="1402"></point>
      <point x="726" y="1395"></point>
    </contour>
  </outline>
</glyph>
<glyph name="zero" format="1">
  <advance width="1143"></advance>
  <unicode hex="0030"></unicode>
  <outline>
    <contour>
      <point x="576" y="846" type="curve" smooth="yes"></point>
      <point x="392" y="846"></point>
      <point x="308" y="666"></point>
      <point x="308" y="479" type="curve" smooth="yes"></point>
      <point x="308" y="276"></point>
      <point x="408" y="64"></point>
      <point x="591" y="64" type="curve" smooth="yes"></point>
      <point x="778" y="64"></point>
      <point x="858" y="232"></point>
      <point x="858" y="413" type="curve" smooth="yes"></point>
      <point x="858" y="621"></point>
      <point x="751" y="846"></point>
    </contour>
    <contour>
      <point x="585" y="-17" type="curve" smooth="yes"></point>
      <point x="262" y="-17"></point>
      <point x="103" y="214"></point>
      <point x="103" y="444" type="curve" smooth="yes"></point>
      <point x="103" y="672"></point>
      <point x="262" y="902"></point>
      <point x="581" y="902" type="curve" smooth="yes"></point>
      <point x="902" y="902"></point>
      <point x="1063" y="671"></point>
      <point x="1063" y="441" type="curve" smooth="yes"></point>
      <point x="1063" y="213"></point>
      <point x="904" y="-17"></point>
    </contour>
  </outline>
</glyph>
<glyph name="one" format="1">
  <advance width="717"></advance>
  <unicode hex="0031"></unicode>
  <outline>
    <contour>
      <point x="474" y="833" type="curve" smooth="yes"></point>
      <point x="474" y="129" type="line" smooth="yes"></point>
      <point x="474" y="13"></point>
      <point x="679" y="84"></point>
      <point x="679" y="19" type="curve" smooth="yes"></point>
      <point x="679" y="16"></point>
      <point x="677" y="10"></point>
      <point x="674" y="0" type="curve"></point>
      <point x="86" y="0" type="line"></point>
      <point x="83" y="9"></point>
      <point x="82" y="14"></point>
      <point x="82" y="17" type="curve" smooth="yes"></point>
      <point x="82" y="76"></point>
      <point x="281" y="23"></point>
      <point x="281" y="130" type="curve" smooth="yes"></point>
      <point x="281" y="710" type="line" smooth="yes"></point>
      <point x="281" y="812"></point>
      <point x="81" y="774"></point>
      <point x="81" y="828" type="curve" smooth="yes"></point>
      <point x="81" y="832"></point>
      <point x="83" y="838"></point>
      <point x="86" y="846" type="curve"></point>
      <point x="452" y="846" type="line" smooth="yes"></point>
      <point x="467" y="846"></point>
      <point x="474" y="842"></point>
    </contour>
  </outline>
</glyph>
<glyph name="two" format="1">
  <advance width="814"></advance>
  <unicode hex="0032"></unicode>
  <outline>
    <contour>
      <point x="256" y="84" type="curve"></point>
      <point x="546" y="97" type="line" smooth="yes"></point>
      <point x="677" y="103"></point>
      <point x="621" y="259"></point>
      <point x="683" y="259" type="curve"></point>
      <point x="697" y="256" type="line"></point>
      <point x="680" y="0" type="line"></point>
      <point x="102" y="0" type="line"></point>
      <point x="91" y="38" type="line"></point>
      <point x="218" y="172"></point>
      <point x="472" y="469"></point>
      <point x="472" y="657" type="curve" smooth="yes"></point>
      <point x="472" y="757"></point>
      <point x="419" y="827"></point>
      <point x="315" y="827" type="curve" smooth="yes"></point>
      <point x="232" y="827"></point>
      <point x="188" y="785"></point>
      <point x="117" y="759" type="curve"></point>
      <point x="104" y="779" type="line"></point>
      <point x="106" y="791" type="line"></point>
      <point x="153" y="865"></point>
      <point x="308" y="902"></point>
      <point x="390" y="902" type="curve" smooth="yes"></point>
      <point x="544" y="902"></point>
      <point x="684" y="814"></point>
      <point x="684" y="647" type="curve" smooth="yes"></point>
      <point x="684" y="463"></point>
      <point x="391" y="197"></point>
    </contour>
  </outline>
</glyph>
<glyph name="three" format="1">
  <advance width="952"></advance>
  <unicode hex="0033"></unicode>
  <outline>
    <contour>
      <point x="397" y="-278" type="curve" smooth="yes"></point>
      <point x="568" y="-278"></point>
      <point x="666" y="-140"></point>
      <point x="666" y="21" type="curve" smooth="yes"></point>
      <point x="666" y="179"></point>
      <point x="594" y="324"></point>
      <point x="417" y="324" type="curve" smooth="yes"></point>
      <point x="383" y="324"></point>
      <point x="350" y="319"></point>
      <point x="317" y="311" type="curve"></point>
      <point x="272" y="363" type="line"></point>
      <point x="405" y="407"></point>
      <point x="622" y="509"></point>
      <point x="622" y="674" type="curve" smooth="yes"></point>
      <point x="622" y="764"></point>
      <point x="568" y="807"></point>
      <point x="480" y="807" type="curve" smooth="yes"></point>
      <point x="361" y="807"></point>
      <point x="292" y="745"></point>
      <point x="189" y="706" type="curve"></point>
      <point x="180" y="711"></point>
      <point x="172" y="722"></point>
      <point x="172" y="733" type="curve"></point>
      <point x="175" y="749" type="line"></point>
      <point x="251" y="847"></point>
      <point x="381" y="901"></point>
      <point x="503" y="901" type="curve" smooth="yes"></point>
      <point x="642" y="901"></point>
      <point x="776" y="833"></point>
      <point x="776" y="678" type="curve" smooth="yes"></point>
      <point x="776" y="511"></point>
      <point x="626" y="400"></point>
      <point x="471" y="387" type="curve"></point>
      <point x="708" y="387"></point>
      <point x="866" y="275"></point>
      <point x="866" y="24" type="curve" smooth="yes"></point>
      <point x="866" y="-222"></point>
      <point x="638" y="-334"></point>
      <point x="420" y="-334" type="curve" smooth="yes"></point>
      <point x="297" y="-334"></point>
      <point x="61" y="-297"></point>
      <point x="61" y="-135" type="curve" smooth="yes"></point>
      <point x="61" y="-80"></point>
      <point x="109" y="-29"></point>
      <point x="164" y="-29" type="curve" smooth="yes"></point>
      <point x="210" y="-29"></point>
      <point x="255" y="-72"></point>
      <point x="255" y="-119" type="curve" smooth="yes"></point>
      <point x="255" y="-149"></point>
      <point x="235" y="-174"></point>
      <point x="235" y="-202" type="curve" smooth="yes"></point>
      <point x="235" y="-255"></point>
      <point x="358" y="-278"></point>
    </contour>
  </outline>
</glyph>
<glyph name="four" format="1">
  <advance width="1059"></advance>
  <unicode hex="0034"></unicode>
  <outline>
    <contour>
      <point x="609" y="-168" type="curve" smooth="yes"></point>
      <point x="609" y="0" type="line"></point>
      <point x="138" y="0" type="line"></point>
      <point x="124" y="47" type="line"></point>
      <point x="598" y="850" type="line"></point>
      <point x="636" y="858"></point>
      <point x="696" y="867"></point>
      <point x="802" y="867" type="curve"></point>
      <point x="802" y="113" type="line"></point>
      <point x="935" y="113" type="line" smooth="yes"></point>
      <point x="958" y="113"></point>
      <point x="965" y="82"></point>
      <point x="965" y="53" type="curve" smooth="yes"></point>
      <point x="965" y="26"></point>
      <point x="958" y="0"></point>
      <point x="950" y="0" type="curve" smooth="yes"></point>
      <point x="803" y="0" type="line"></point>
      <point x="803" y="-173" type="line" smooth="yes"></point>
      <point x="803" y="-257"></point>
      <point x="976" y="-223"></point>
      <point x="976" y="-267" type="curve" smooth="yes"></point>
      <point x="976" y="-272"></point>
      <point x="975" y="-278"></point>
      <point x="972" y="-283" type="curve"></point>
      <point x="434" y="-283" type="line"></point>
      <point x="431" y="-275"></point>
      <point x="430" y="-270"></point>
      <point x="430" y="-267" type="curve" smooth="yes"></point>
      <point x="430" y="-215"></point>
      <point x="609" y="-255"></point>
    </contour>
    <contour>
      <point x="609" y="113" type="line"></point>
      <point x="609" y="713" type="line"></point>
      <point x="235" y="113" type="line"></point>
    </contour>
  </outline>
</glyph>
<glyph name="five" format="1">
  <advance width="1109"></advance>
  <unicode hex="0035"></unicode>
  <outline>
    <contour>
      <point x="521" y="303" type="curve" smooth="yes"></point>
      <point x="403" y="303"></point>
      <point x="327" y="227"></point>
      <point x="244" y="220" type="curve"></point>
      <point x="233" y="221"></point>
      <point x="218" y="230"></point>
      <point x="218" y="243" type="curve" smooth="yes"></point>
      <point x="218" y="868" type="line"></point>
      <point x="875" y="868" type="line"></point>
      <point x="839" y="733" type="line"></point>
      <point x="294" y="733" type="line"></point>
      <point x="294" y="324" type="line"></point>
      <point x="379" y="376"></point>
      <point x="477" y="402"></point>
      <point x="577" y="402" type="curve" smooth="yes"></point>
      <point x="814" y="402"></point>
      <point x="983" y="277"></point>
      <point x="983" y="30" type="curve" smooth="yes"></point>
      <point x="983" y="-218"></point>
      <point x="767" y="-360"></point>
      <point x="537" y="-360" type="curve" smooth="yes"></point>
      <point x="414" y="-360"></point>
      <point x="177" y="-323"></point>
      <point x="177" y="-161" type="curve" smooth="yes"></point>
      <point x="177" y="-106"></point>
      <point x="226" y="-55"></point>
      <point x="281" y="-55" type="curve" smooth="yes"></point>
      <point x="327" y="-55"></point>
      <point x="372" y="-98"></point>
      <point x="372" y="-145" type="curve" smooth="yes"></point>
      <point x="372" y="-175"></point>
      <point x="352" y="-200"></point>
      <point x="352" y="-228" type="curve" smooth="yes"></point>
      <point x="352" y="-281"></point>
      <point x="475" y="-304"></point>
      <point x="514" y="-304" type="curve" smooth="yes"></point>
      <point x="691" y="-304"></point>
      <point x="783" y="-131"></point>
      <point x="783" y="27" type="curve" smooth="yes"></point>
      <point x="783" y="193"></point>
      <point x="693" y="303"></point>
    </contour>
  </outline>
</glyph>
<glyph name="six" format="1">
  <advance width="1047"></advance>
  <unicode hex="0036"></unicode>
  <outline>
    <contour>
      <point x="683" y="1247" type="curve"></point>
      <point x="694" y="1250"></point>
      <point x="708" y="1251"></point>
      <point x="720" y="1251" type="curve" smooth="yes"></point>
      <point x="741" y="1251"></point>
      <point x="747" y="1246"></point>
      <point x="747" y="1223" type="curve" smooth="yes"></point>
      <point x="747" y="1211"></point>
      <point x="746" y="1204"></point>
      <point x="727" y="1197" type="curve" smooth="yes"></point>
      <point x="578" y="1138"></point>
      <point x="404" y="952"></point>
      <point x="351" y="731" type="curve"></point>
      <point x="427" y="767"></point>
      <point x="505" y="783"></point>
      <point x="578" y="783" type="curve" smooth="yes"></point>
      <point x="802" y="783"></point>
      <point x="975" y="642"></point>
      <point x="975" y="389" type="curve" smooth="yes"></point>
      <point x="975" y="147"></point>
      <point x="766" y="-17"></point>
      <point x="547" y="-17" type="curve" smooth="yes"></point>
      <point x="240" y="-17"></point>
      <point x="114" y="195"></point>
      <point x="114" y="447" type="curve" smooth="yes"></point>
      <point x="114" y="788"></point>
      <point x="346" y="1199"></point>
    </contour>
    <contour>
      <point x="775" y="396" type="curve" smooth="yes"></point>
      <point x="775" y="615"></point>
      <point x="675" y="717"></point>
      <point x="526" y="717" type="curve" smooth="yes"></point>
      <point x="469" y="717"></point>
      <point x="406" y="699"></point>
      <point x="342" y="662" type="curve"></point>
      <point x="326" y="580"></point>
      <point x="318" y="525"></point>
      <point x="318" y="459" type="curve" smooth="yes"></point>
      <point x="318" y="186"></point>
      <point x="425" y="52"></point>
      <point x="566" y="52" type="curve" smooth="yes"></point>
      <point x="678" y="52"></point>
      <point x="775" y="168"></point>
    </contour>
  </outline>
</glyph>
<glyph name="seven" format="1">
  <advance width="1109"></advance>
  <unicode hex="0037"></unicode>
  <outline>
    <contour>
      <point x="599" y="-334" type="curve"></point>
      <point x="389" y="-334" type="line"></point>
      <point x="483" y="-1"></point>
      <point x="641" y="477"></point>
      <point x="830" y="763" type="curve"></point>
      <point x="398" y="735" type="line" smooth="yes"></point>
      <point x="219" y="723"></point>
      <point x="292" y="517"></point>
      <point x="213" y="517" type="curve" smooth="yes"></point>
      <point x="207" y="517"></point>
      <point x="198" y="520"></point>
      <point x="193" y="521" type="curve"></point>
      <point x="216" y="856" type="line"></point>
      <point x="226" y="867" type="line"></point>
      <point x="959" y="867" type="line"></point>
      <point x="974" y="815" type="line"></point>
      <point x="798" y="459"></point>
      <point x="686" y="53"></point>
    </contour>
  </outline>
</glyph>
<glyph name="eight" format="1">
  <advance width="979"></advance>
  <unicode hex="0038"></unicode>
  <outline>
    <contour>
      <point x="70" y="275" type="curve" smooth="yes"></point>
      <point x="70" y="428"></point>
      <point x="197" y="529"></point>
      <point x="337" y="623" type="curve"></point>
      <point x="224" y="706"></point>
      <point x="125" y="803"></point>
      <point x="125" y="943" type="curve" smooth="yes"></point>
      <point x="125" y="1091"></point>
      <point x="258" y="1207"></point>
      <point x="504" y="1207" type="curve" smooth="yes"></point>
      <point x="744" y="1207"></point>
      <point x="829" y="1070"></point>
      <point x="829" y="972" type="curve" smooth="yes"></point>
      <point x="829" y="838"></point>
      <point x="743" y="759"></point>
      <point x="630" y="673" type="curve"></point>
      <point x="778" y="580"></point>
      <point x="923" y="472"></point>
      <point x="923" y="264" type="curve" smooth="yes"></point>
      <point x="923" y="124"></point>
      <point x="824" y="-28"></point>
      <point x="477" y="-28" type="curve" smooth="yes"></point>
      <point x="229" y="-28"></point>
      <point x="70" y="107"></point>
    </contour>
    <contour>
      <point x="492" y="41" type="curve" smooth="yes"></point>
      <point x="671" y="41"></point>
      <point x="723" y="170"></point>
      <point x="723" y="277" type="curve" smooth="yes"></point>
      <point x="723" y="384"></point>
      <point x="609" y="457"></point>
      <point x="482" y="539" type="curve" smooth="yes"></point>
      <point x="462" y="552" type="line"></point>
      <point x="323" y="464"></point>
      <point x="202" y="383"></point>
      <point x="202" y="277" type="curve" smooth="yes"></point>
      <point x="202" y="133"></point>
      <point x="301" y="41"></point>
    </contour>
    <contour>
      <point x="303" y="997" type="curve" smooth="yes"></point>
      <point x="303" y="889"></point>
      <point x="398" y="817"></point>
      <point x="514" y="746" type="curve"></point>
      <point x="629" y="821"></point>
      <point x="701" y="881"></point>
      <point x="701" y="978" type="curve" smooth="yes"></point>
      <point x="701" y="1062"></point>
      <point x="662" y="1144"></point>
      <point x="504" y="1144" type="curve" smooth="yes"></point>
      <point x="375" y="1144"></point>
      <point x="303" y="1089"></point>
    </contour>
  </outline>
</glyph>
<glyph name="nine" format="1">
  <advance width="1021"></advance>
  <unicode hex="0039"></unicode>
  <outline>
    <contour>
      <point x="367" y="-363" type="curve"></point>
      <point x="356" y="-366"></point>
      <point x="342" y="-367"></point>
      <point x="330" y="-367" type="curve" smooth="yes"></point>
      <point x="309" y="-367"></point>
      <point x="303" y="-362"></point>
      <point x="303" y="-339" type="curve" smooth="yes"></point>
      <point x="303" y="-327"></point>
      <point x="304" y="-321"></point>
      <point x="323" y="-313" type="curve" smooth="yes"></point>
      <point x="472" y="-255"></point>
      <point x="646" y="-68"></point>
      <point x="699" y="153" type="curve"></point>
      <point x="623" y="117"></point>
      <point x="545" y="101"></point>
      <point x="472" y="101" type="curve" smooth="yes"></point>
      <point x="248" y="101"></point>
      <point x="75" y="242"></point>
      <point x="75" y="495" type="curve" smooth="yes"></point>
      <point x="75" y="737"></point>
      <point x="284" y="901"></point>
      <point x="503" y="901" type="curve" smooth="yes"></point>
      <point x="810" y="901"></point>
      <point x="936" y="689"></point>
      <point x="936" y="437" type="curve" smooth="yes"></point>
      <point x="936" y="96"></point>
      <point x="704" y="-315"></point>
    </contour>
    <contour>
      <point x="275" y="488" type="curve" smooth="yes"></point>
      <point x="275" y="269"></point>
      <point x="375" y="167"></point>
      <point x="524" y="167" type="curve" smooth="yes"></point>
      <point x="581" y="167"></point>
      <point x="644" y="185"></point>
      <point x="708" y="222" type="curve"></point>
      <point x="724" y="304"></point>
      <point x="732" y="359"></point>
      <point x="732" y="425" type="curve" smooth="yes"></point>
      <point x="732" y="698"></point>
      <point x="625" y="832"></point>
      <point x="484" y="832" type="curve" smooth="yes"></point>
      <point x="372" y="832"></point>
      <point x="275" y="716"></point>
    </contour>
  </outline>
</glyph>
<glyph name="colon" format="1">
  <advance width="666"></advance>
  <unicode hex="003A"></unicode>
  <outline>
    <contour>
      <point x="341" y="251" type="curve" smooth="yes"></point>
      <point x="418" y="251"></point>
      <point x="480" y="189"></point>
      <point x="480" y="116" type="curve" smooth="yes"></point>
      <point x="480" y="44"></point>
      <point x="418" y="-20"></point>
      <point x="341" y="-20" type="curve" smooth="yes"></point>
      <point x="265" y="-20"></point>
      <point x="204" y="42"></point>
      <point x="204" y="116" type="curve" smooth="yes"></point>
      <point x="204" y="189"></point>
      <point x="265" y="251"></point>
    </contour>
    <contour>
      <point x="341" y="1039" type="curve" smooth="yes"></point>
      <point x="418" y="1039"></point>
      <point x="480" y="976"></point>
      <point x="480" y="904" type="curve" smooth="yes"></point>
      <point x="480" y="832"></point>
      <point x="418" y="768"></point>
      <point x="341" y="768" type="curve" smooth="yes"></point>
      <point x="265" y="768"></point>
      <point x="204" y="830"></point>
      <point x="204" y="904" type="curve" smooth="yes"></point>
      <point x="204" y="976"></point>
      <point x="265" y="1039"></point>
    </contour>
  </outline>
</glyph>
<glyph name="semicolon" format="1">
  <advance width="634"></advance>
  <unicode hex="003B"></unicode>
  <outline>
    <contour>
      <point x="317" y="1039" type="curve" smooth="yes"></point>
      <point x="394" y="1039"></point>
      <point x="456" y="976"></point>
      <point x="456" y="904" type="curve" smooth="yes"></point>
      <point x="456" y="832"></point>
      <point x="394" y="768"></point>
      <point x="317" y="768" type="curve" smooth="yes"></point>
      <point x="241" y="768"></point>
      <point x="180" y="830"></point>
      <point x="180" y="904" type="curve" smooth="yes"></point>
      <point x="180" y="976"></point>
      <point x="241" y="1039"></point>
    </contour>
    <contour>
      <point x="156" y="-268" type="curve"></point>
      <point x="147" y="-253"></point>
      <point x="139" y="-236"></point>
      <point x="139" y="-208" type="curve"></point>
      <point x="243" y="-174"></point>
      <point x="358" y="-153"></point>
      <point x="358" y="-23" type="curve"></point>
      <point x="339" y="22"></point>
      <point x="309" y="47"></point>
      <point x="256" y="56" type="curve" smooth="yes"></point>
      <point x="194" y="66"></point>
      <point x="158" y="110"></point>
      <point x="158" y="174" type="curve" smooth="yes"></point>
      <point x="158" y="252"></point>
      <point x="213" y="311"></point>
      <point x="299" y="311" type="curve" smooth="yes"></point>
      <point x="404" y="311"></point>
      <point x="491" y="217"></point>
      <point x="491" y="45" type="curve" smooth="yes"></point>
      <point x="491" y="-163"></point>
      <point x="335" y="-264"></point>
    </contour>
  </outline>
</glyph>
<glyph name="less" format="1">
  <advance width="762"></advance>
  <unicode hex="003C"></unicode>
  <outline>
    <contour>
      <point x="566" y="18" type="curve" smooth="yes"></point>
      <point x="530" y="18"></point>
      <point x="511" y="29"></point>
      <point x="490" y="59" type="curve" smooth="yes"></point>
      <point x="151" y="553" type="line"></point>
      <point x="238" y="668"></point>
      <point x="448" y="996"></point>
      <point x="556" y="1068" type="curve"></point>
      <point x="589" y="1068"></point>
      <point x="629" y="1047"></point>
      <point x="629" y="1009" type="curve"></point>
      <point x="559" y="855"></point>
      <point x="389" y="688"></point>
      <point x="282" y="553" type="curve"></point>
      <point x="333" y="482"></point>
      <point x="611" y="144"></point>
      <point x="611" y="69" type="curve" smooth="yes"></point>
      <point x="611" y="42"></point>
      <point x="595" y="18"></point>
    </contour>
  </outline>
</glyph>
<glyph name="equal" format="1">
  <advance width="828"></advance>
  <unicode hex="003D"></unicode>
  <outline>
    <contour>
      <point x="570" y="729" type="line" smooth="yes"></point>
      <point x="576" y="729"></point>
      <point x="584" y="729.187"></point>
      <point x="594" y="729.187" type="curve" smooth="yes"></point>
      <point x="637" y="729.187"></point>
      <point x="705" y="725.118"></point>
      <point x="705" y="679" type="curve" smooth="yes"></point>
      <point x="705" y="641.667"></point>
      <point x="661" y="635.444"></point>
      <point x="621" y="635.444" type="curve" smooth="yes"></point>
      <point x="601" y="635.444"></point>
      <point x="582" y="637"></point>
      <point x="570" y="637" type="curve" smooth="yes"></point>
      <point x="258" y="637" type="line" smooth="yes"></point>
      <point x="246" y="637"></point>
      <point x="230" y="635.997"></point>
      <point x="213" y="635.997" type="curve" smooth="yes"></point>
      <point x="171" y="635.997"></point>
      <point x="123" y="642.06"></point>
      <point x="123" y="684" type="curve" smooth="yes"></point>
      <point x="123" y="724.5"></point>
      <point x="177" y="729.562"></point>
      <point x="219" y="729.562" type="curve" smooth="yes"></point>
      <point x="233" y="729.562"></point>
      <point x="246" y="729"></point>
      <point x="255" y="729" type="curve" smooth="yes"></point>
    </contour>
    <contour>
      <point x="570" y="487" type="line" smooth="yes"></point>
      <point x="576" y="487"></point>
      <point x="584" y="487.187"></point>
      <point x="594" y="487.187" type="curve" smooth="yes"></point>
      <point x="637" y="487.187"></point>
      <point x="705" y="483.118"></point>
      <point x="705" y="437" type="curve" smooth="yes"></point>
      <point x="705" y="399.667"></point>
      <point x="661" y="393.444"></point>
      <point x="621" y="393.444" type="curve" smooth="yes"></point>
      <point x="601" y="393.444"></point>
      <point x="582" y="395"></point>
      <point x="570" y="395" type="curve" smooth="yes"></point>
      <point x="258" y="395" type="line" smooth="yes"></point>
      <point x="246" y="395"></point>
      <point x="230" y="393.997"></point>
      <point x="213" y="393.997" type="curve" smooth="yes"></point>
      <point x="171" y="393.997"></point>
      <point x="123" y="400.06"></point>
      <point x="123" y="442" type="curve" smooth="yes"></point>
      <point x="123" y="482.5"></point>
      <point x="177" y="487.562"></point>
      <point x="219" y="487.562" type="curve" smooth="yes"></point>
      <point x="233" y="487.562"></point>
      <point x="246" y="487"></point>
      <point x="255" y="487" type="curve" smooth="yes"></point>
    </contour>
  </outline>
</glyph>
<glyph name="greater" format="1">
  <advance width="857"></advance>
  <unicode hex="003E"></unicode>
  <outline>
    <contour>
      <point x="240" y="18" type="curve" smooth="yes"></point>
      <point x="211" y="18"></point>
      <point x="195" y="42"></point>
      <point x="195" y="69" type="curve" smooth="yes"></point>
      <point x="195" y="145"></point>
      <point x="472" y="480"></point>
      <point x="524" y="553" type="curve"></point>
      <point x="417" y="688"></point>
      <point x="247" y="855"></point>
      <point x="177" y="1009" type="curve"></point>
      <point x="177" y="1047"></point>
      <point x="217" y="1068"></point>
      <point x="250" y="1068" type="curve"></point>
      <point x="358" y="996"></point>
      <point x="568" y="668"></point>
      <point x="655" y="553" type="curve"></point>
      <point x="316" y="59" type="line" smooth="yes"></point>
      <point x="295" y="29"></point>
      <point x="276" y="18"></point>
    </contour>
  </outline>
</glyph>
<glyph name="question" format="1">
  <advance width="800"></advance>
  <unicode hex="003F"></unicode>
  <outline>
    <contour>
      <point x="274" y="236" type="curve" smooth="yes"></point>
      <point x="342" y="236"></point>
      <point x="400" y="179"></point>
      <point x="400" y="111" type="curve" smooth="yes"></point>
      <point x="400" y="43"></point>
      <point x="341" y="-13"></point>
      <point x="274" y="-13" type="curve" smooth="yes"></point>
      <point x="207" y="-13"></point>
      <point x="151" y="45"></point>
      <point x="151" y="111" type="curve" smooth="yes"></point>
      <point x="151" y="178"></point>
      <point x="206" y="236"></point>
    </contour>
    <contour>
      <point x="308" y="358" type="line"></point>
      <point x="227" y="358" type="line"></point>
      <point x="220" y="431"></point>
      <point x="195" y="502"></point>
      <point x="195" y="576" type="curve" smooth="yes"></point>
      <point x="195" y="690"></point>
      <point x="563" y="756"></point>
      <point x="563" y="984" type="curve" smooth="yes"></point>
      <point x="563" y="1110"></point>
      <point x="446" y="1218"></point>
      <point x="322" y="1218" type="curve" smooth="yes"></point>
      <point x="233" y="1218"></point>
      <point x="202" y="1096"></point>
      <point x="114" y="1096" type="curve" smooth="yes"></point>
      <point x="70" y="1096"></point>
      <point x="38" y="1138"></point>
      <point x="38" y="1179" type="curve" smooth="yes"></point>
      <point x="38" y="1294"></point>
      <point x="189" y="1329"></point>
      <point x="294" y="1329" type="curve" smooth="yes"></point>
      <point x="488" y="1329"></point>
      <point x="700" y="1161"></point>
      <point x="700" y="970" type="curve" smooth="yes"></point>
      <point x="700" y="613"></point>
      <point x="308" y="649"></point>
      <point x="308" y="397" type="curve" smooth="yes"></point>
    </contour>
  </outline>
</glyph>
<glyph name="at" format="1">
  <advance width="1815"></advance>
  <unicode hex="0040"></unicode>
  <outline>
    <contour>
      <point x="991" y="1328" type="curve" smooth="yes"></point>
      <point x="1369" y="1328"></point>
      <point x="1681" y="1112"></point>
      <point x="1681" y="710" type="curve" smooth="yes"></point>
      <point x="1681" y="487"></point>
      <point x="1530" y="131"></point>
      <point x="1267" y="131" type="curve" smooth="yes"></point>
      <point x="1157" y="131"></point>
      <point x="1094" y="224"></point>
      <point x="1072" y="322" type="curve"></point>
      <point x="1003" y="236"></point>
      <point x="896" y="183"></point>
      <point x="785" y="183" type="curve" smooth="yes"></point>
      <point x="593" y="183"></point>
      <point x="499" y="332"></point>
      <point x="499" y="510" type="curve" smooth="yes"></point>
      <point x="499" y="781"></point>
      <point x="697" y="1057"></point>
      <point x="986" y="1057" type="curve" smooth="yes"></point>
      <point x="1206" y="1057"></point>
      <point x="1261" y="902"></point>
      <point x="1261" y="711" type="curve" smooth="yes"></point>
      <point x="1261" y="574"></point>
      <point x="1230" y="439"></point>
      <point x="1230" y="302" type="curve" smooth="yes"></point>
      <point x="1230" y="258"></point>
      <point x="1233" y="181"></point>
      <point x="1295" y="181" type="curve" smooth="yes"></point>
      <point x="1437" y="181"></point>
      <point x="1483" y="562"></point>
      <point x="1483" y="673" type="curve" smooth="yes"></point>
      <point x="1483" y="985"></point>
      <point x="1328" y="1275"></point>
      <point x="982" y="1275" type="curve" smooth="yes"></point>
      <point x="550" y="1275"></point>
      <point x="321" y="843"></point>
      <point x="321" y="457" type="curve" smooth="yes"></point>
      <point x="321" y="137"></point>
      <point x="481" y="-26"></point>
      <point x="804" y="-26" type="curve" smooth="yes"></point>
      <point x="887" y="-26"></point>
      <point x="969" y="-13"></point>
      <point x="1049" y="10" type="curve"></point>
      <point x="1042" y="-63" type="line"></point>
      <point x="945" y="-94"></point>
      <point x="843" y="-112"></point>
      <point x="740" y="-112" type="curve" smooth="yes"></point>
      <point x="400" y="-112"></point>
      <point x="108" y="91"></point>
      <point x="108" y="453" type="curve" smooth="yes"></point>
      <point x="108" y="941"></point>
      <point x="507" y="1328"></point>
    </contour>
    <contour>
      <point x="1103" y="739" type="curve" smooth="yes"></point>
      <point x="1103" y="829"></point>
      <point x="1091" y="1018"></point>
      <point x="965" y="1018" type="curve" smooth="yes"></point>
      <point x="754" y="1018"></point>
      <point x="661" y="689"></point>
      <point x="661" y="519" type="curve" smooth="yes"></point>
      <point x="661" y="412"></point>
      <point x="688" y="251"></point>
      <point x="825" y="251" type="curve" smooth="yes"></point>
      <point x="913" y="251"></point>
      <point x="1004" y="302"></point>
      <point x="1069" y="358" type="curve"></point>
      <point x="1082" y="484"></point>
      <point x="1103" y="612"></point>
    </contour>
  </outline>
</glyph>
<glyph name="A" format="1">
  <advance width="1333"></advance>
  <unicode hex="0041"></unicode>
  <outline>
    <contour>
      <point x="412" y="620" type="line"></point>
      <point x="792" y="620" type="line"></point>
      <point x="595" y="1112" type="line"></point>
    </contour>
    <contour>
      <point x="262" y="175" type="curve" smooth="yes"></point>
      <point x="262" y="89.8591"></point>
      <point x="381" y="72.0387"></point>
      <point x="453" y="57" type="curve"></point>
      <point x="453" y="0" type="line"></point>
      <point x="-17" y="0" type="line"></point>
      <point x="-17" y="52" type="line"></point>
      <point x="37" y="97"></point>
      <point x="100" y="85"></point>
      <point x="141" y="163" type="curve" smooth="yes"></point>
      <point x="159" y="198"></point>
      <point x="172" y="236"></point>
      <point x="187" y="273" type="curve" smooth="yes"></point>
      <point x="561" y="1231" type="line" smooth="yes"></point>
      <point x="571" y="1258"></point>
      <point x="562" y="1299"></point>
      <point x="580" y="1324" type="curve"></point>
      <point x="641" y="1324"></point>
      <point x="686" y="1315"></point>
      <point x="736" y="1277" type="curve"></point>
      <point x="1195" y="176" type="line" smooth="yes"></point>
      <point x="1232" y="86"></point>
      <point x="1296" y="90"></point>
      <point x="1368" y="52" type="curve"></point>
      <point x="1366" y="0" type="line"></point>
      <point x="784" y="0" type="line"></point>
      <point x="782" y="52" type="line"></point>
      <point x="842" y="70"></point>
      <point x="950" y="101"></point>
      <point x="950" y="180" type="curve" smooth="yes"></point>
      <point x="950" y="227"></point>
      <point x="851" y="472"></point>
      <point x="829" y="532" type="curve"></point>
      <point x="378" y="532" type="line"></point>
      <point x="358" y="477"></point>
      <point x="262" y="253"></point>
    </contour>
  </outline>
</glyph>
<glyph name="B" format="1">
  <advance width="1186"></advance>
  <unicode hex="0042"></unicode>
  <outline>
    <contour>
      <point x="143" y="221" type="curve" smooth="yes"></point>
      <point x="143" y="1023" type="line" smooth="yes"></point>
      <point x="143" y="1236"></point>
      <point x="82" y="1188"></point>
      <point x="-72" y="1251" type="curve"></point>
      <point x="-70" y="1302" type="line"></point>
      <point x="497" y="1302" type="line" smooth="yes"></point>
      <point x="730" y="1302"></point>
      <point x="1090" y="1292"></point>
      <point x="1090" y="975" type="curve" smooth="yes"></point>
      <point x="1090" y="771"></point>
      <point x="901" y="698"></point>
      <point x="729" y="669" type="curve"></point>
      <point x="917" y="660"></point>
      <point x="1156" y="574"></point>
      <point x="1156" y="349" type="curve" smooth="yes"></point>
      <point x="1156" y="81"></point>
      <point x="868" y="0"></point>
      <point x="649" y="0" type="curve" smooth="yes"></point>
      <point x="-70" y="0" type="line"></point>
      <point x="-72" y="52" type="line"></point>
      <point x="22" y="80"></point>
      <point x="143" y="95"></point>
    </contour>
    <contour>
      <point x="383" y="630" type="curve"></point>
      <point x="358" y="608"></point>
      <point x="358" y="572"></point>
      <point x="358" y="542" type="curve" smooth="yes"></point>
      <point x="358" y="274" type="line" smooth="yes"></point>
      <point x="358" y="205"></point>
      <point x="377" y="87"></point>
      <point x="468" y="87" type="curve" smooth="yes"></point>
      <point x="630" y="87" type="line" smooth="yes"></point>
      <point x="781" y="87"></point>
      <point x="906" y="177"></point>
      <point x="906" y="336" type="curve" smooth="yes"></point>
      <point x="906" y="627"></point>
      <point x="595" y="630"></point>
    </contour>
    <contour>
      <point x="358" y="1227" type="line"></point>
      <point x="358" y="730" type="line"></point>
      <point x="377" y="713"></point>
      <point x="412" y="700"></point>
      <point x="438" y="700" type="curve" smooth="yes"></point>
      <point x="571" y="700" type="line" smooth="yes"></point>
      <point x="739" y="700"></point>
      <point x="891" y="749"></point>
      <point x="891" y="943" type="curve" smooth="yes"></point>
      <point x="891" y="1224"></point>
      <point x="613" y="1226"></point>
      <point x="404" y="1227" type="curve"></point>
    </contour>
  </outline>
</glyph>
<glyph name="C" format="1">
  <advance width="1462"></advance>
  <unicode hex="0043"></unicode>
  <outline>
    <contour>
      <point x="1281" y="1245" type="curve"></point>
      <point x="1322" y="943" type="line"></point>
      <point x="1275" y="941" type="line"></point>
      <point x="1236" y="980"></point>
      <point x="1199" y="1075"></point>
      <point x="1157" y="1117" type="curve" smooth="yes"></point>
      <point x="1065" y="1209"></point>
      <point x="953" y="1250"></point>
      <point x="837" y="1250" type="curve" smooth="yes"></point>
      <point x="582" y="1250"></point>
      <point x="347" y="1048"></point>
      <point x="347" y="680" type="curve" smooth="yes"></point>
      <point x="347" y="315"></point>
      <point x="556" y="81"></point>
      <point x="879" y="81" type="curve" smooth="yes"></point>
      <point x="1057" y="81"></point>
      <point x="1205" y="155"></point>
      <point x="1284" y="304" type="curve"></point>
      <point x="1333" y="297" type="line"></point>
      <point x="1324" y="108" type="line"></point>
      <point x="1177" y="26"></point>
      <point x="969" y="-26"></point>
      <point x="807" y="-26" type="curve" smooth="yes"></point>
      <point x="416" y="-26"></point>
      <point x="113" y="225"></point>
      <point x="113" y="640" type="curve" smooth="yes"></point>
      <point x="113" y="1022"></point>
      <point x="406" y="1327"></point>
      <point x="865" y="1327" type="curve" smooth="yes"></point>
      <point x="1000" y="1327"></point>
      <point x="1137" y="1301"></point>
    </contour>
  </outline>
</glyph>
<glyph name="D" format="1">
  <advance width="1513"></advance>
  <unicode hex="0044"></unicode>
  <outline>
    <contour>
      <point x="566" y="1225" type="curve" smooth="yes"></point>
      <point x="398" y="1225" type="line"></point>
      <point x="398" y="271" type="line" smooth="yes"></point>
      <point x="398" y="166"></point>
      <point x="431" y="85"></point>
      <point x="546" y="80" type="curve" smooth="yes"></point>
      <point x="583" y="78"></point>
      <point x="624" y="77"></point>
      <point x="661" y="77" type="curve" smooth="yes"></point>
      <point x="1007" y="77"></point>
      <point x="1165" y="352"></point>
      <point x="1165" y="609" type="curve" smooth="yes"></point>
      <point x="1165" y="954"></point>
      <point x="985" y="1225"></point>
    </contour>
    <contour>
      <point x="183" y="219" type="curve" smooth="yes"></point>
      <point x="183" y="1010" type="line" smooth="yes"></point>
      <point x="183" y="1053"></point>
      <point x="179" y="1094"></point>
      <point x="173" y="1131" type="curve" smooth="yes"></point>
      <point x="158" y="1212"></point>
      <point x="33" y="1226"></point>
      <point x="-39" y="1251" type="curve"></point>
      <point x="-37" y="1302" type="line"></point>
      <point x="553" y="1302" type="line" smooth="yes"></point>
      <point x="1029" y="1302"></point>
      <point x="1403" y="1130"></point>
      <point x="1403" y="658" type="curve" smooth="yes"></point>
      <point x="1403" y="321"></point>
      <point x="1158" y="0"></point>
      <point x="680" y="0" type="curve" smooth="yes"></point>
      <point x="-37" y="0" type="line"></point>
      <point x="-39" y="52" type="line"></point>
      <point x="57" y="81"></point>
      <point x="183" y="81"></point>
    </contour>
  </outline>
</glyph>
<glyph name="E" format="1">
  <advance width="1145"></advance>
  <unicode hex="0045"></unicode>
  <outline>
    <contour>
      <point x="1100" y="342" type="curve"></point>
      <point x="1163" y="342" type="line"></point>
      <point x="1097" y="-9" type="line"></point>
      <point x="1086" y="-11"></point>
      <point x="1076" y="-12"></point>
      <point x="1065" y="-12" type="curve" smooth="yes"></point>
      <point x="1026" y="-12"></point>
      <point x="989" y="0"></point>
      <point x="950" y="0" type="curve" smooth="yes"></point>
      <point x="-75" y="0" type="line"></point>
      <point x="-77" y="49" type="line"></point>
      <point x="66" y="128"></point>
      <point x="135" y="26"></point>
      <point x="135" y="267" type="curve" smooth="yes"></point>
      <point x="135" y="1024" type="line" smooth="yes"></point>
      <point x="135" y="1225"></point>
      <point x="77" y="1190"></point>
      <point x="-77" y="1251" type="curve"></point>
      <point x="-75" y="1302" type="line"></point>
      <point x="944" y="1302" type="line" smooth="yes"></point>
      <point x="980" y="1302"></point>
      <point x="1016" y="1312"></point>
      <point x="1052" y="1312" type="curve" smooth="yes"></point>
      <point x="1064" y="1312"></point>
      <point x="1077" y="1311"></point>
      <point x="1089" y="1308" type="curve"></point>
      <point x="1089" y="997" type="line"></point>
      <point x="1037" y="995" type="line"></point>
      <point x="974" y="1057"></point>
      <point x="983" y="1175"></point>
      <point x="887" y="1207" type="curve" smooth="yes"></point>
      <point x="802" y="1235"></point>
      <point x="652" y="1235"></point>
      <point x="556" y="1235" type="curve" smooth="yes"></point>
      <point x="483" y="1235"></point>
      <point x="420" y="1234"></point>
      <point x="354" y="1226" type="curve"></point>
      <point x="351" y="1192"></point>
      <point x="350" y="1157"></point>
      <point x="350" y="1123" type="curve" smooth="yes"></point>
      <point x="350" y="717" type="line"></point>
      <point x="638" y="717" type="line" smooth="yes"></point>
      <point x="796" y="717"></point>
      <point x="813" y="748"></point>
      <point x="876" y="864" type="curve"></point>
      <point x="891" y="891" type="line"></point>
      <point x="948" y="891" type="line"></point>
      <point x="948" y="462" type="line"></point>
      <point x="891" y="459" type="line"></point>
      <point x="853" y="561"></point>
      <point x="796" y="641"></point>
      <point x="677" y="641" type="curve" smooth="yes"></point>
      <point x="350" y="641" type="line"></point>
      <point x="350" y="304" type="line" smooth="yes"></point>
      <point x="350" y="88"></point>
      <point x="427" y="70"></point>
      <point x="578" y="70" type="curve" smooth="yes"></point>
      <point x="676" y="70" type="line" smooth="yes"></point>
      <point x="806" y="70"></point>
      <point x="964" y="84"></point>
      <point x="1029" y="215" type="curve" smooth="yes"></point>
      <point x="1051" y="258"></point>
      <point x="1066" y="306"></point>
    </contour>
  </outline>
</glyph>
<glyph name="F" format="1">
  <advance width="1261"></advance>
  <unicode hex="0046"></unicode>
  <outline>
    <contour>
      <point x="1018" y="901" type="line"></point>
      <point x="1018" y="466" type="line"></point>
      <point x="999" y="464"></point>
      <point x="980" y="463"></point>
      <point x="961" y="463" type="curve"></point>
      <point x="873" y="645"></point>
      <point x="850" y="657"></point>
      <point x="688" y="657" type="curve" smooth="yes"></point>
      <point x="439" y="657" type="line"></point>
      <point x="439" y="258" type="line" smooth="yes"></point>
      <point x="439" y="36"></point>
      <point x="531" y="106"></point>
      <point x="683" y="52" type="curve"></point>
      <point x="683" y="0" type="line"></point>
      <point x="10" y="0" type="line"></point>
      <point x="8" y="52" type="line"></point>
      <point x="149" y="116"></point>
      <point x="224" y="40"></point>
      <point x="224" y="261" type="curve" smooth="yes"></point>
      <point x="224" y="1021" type="line" smooth="yes"></point>
      <point x="224" y="1231"></point>
      <point x="161" y="1193"></point>
      <point x="2" y="1251" type="curve"></point>
      <point x="2" y="1302" type="line"></point>
      <point x="334" y="1302"></point>
      <point x="668" y="1305"></point>
      <point x="1002" y="1305" type="curve" smooth="yes"></point>
      <point x="1170" y="1305" type="line"></point>
      <point x="1170" y="995" type="line"></point>
      <point x="1125" y="993" type="line"></point>
      <point x="1058" y="1067"></point>
      <point x="1039" y="1205"></point>
      <point x="925" y="1222" type="curve" smooth="yes"></point>
      <point x="855" y="1232"></point>
      <point x="783" y="1232"></point>
      <point x="712" y="1232" type="curve" smooth="yes"></point>
      <point x="520" y="1232" type="line" smooth="yes"></point>
      <point x="452" y="1232"></point>
      <point x="439" y="1229"></point>
      <point x="439" y="1160" type="curve" smooth="yes"></point>
      <point x="439" y="733" type="line"></point>
      <point x="519" y="733"></point>
      <point x="586" y="729"></point>
      <point x="652" y="729" type="curve" smooth="yes"></point>
      <point x="719" y="729"></point>
      <point x="785" y="733"></point>
      <point x="846" y="749" type="curve" smooth="yes"></point>
      <point x="915" y="767"></point>
      <point x="927" y="850"></point>
      <point x="959" y="903" type="curve"></point>
    </contour>
  </outline>
</glyph>
<glyph name="G" format="1">
  <advance width="1563"></advance>
  <unicode hex="0047"></unicode>
  <outline>
    <contour>
      <point x="1377" y="463" type="curve" smooth="yes"></point>
      <point x="1377" y="95" type="line"></point>
      <point x="1243" y="25"></point>
      <point x="1052" y="-26"></point>
      <point x="861" y="-26" type="curve" smooth="yes"></point>
      <point x="405" y="-26"></point>
      <point x="103" y="237"></point>
      <point x="103" y="638" type="curve" smooth="yes"></point>
      <point x="103" y="1055"></point>
      <point x="469" y="1327"></point>
      <point x="898" y="1327" type="curve" smooth="yes"></point>
      <point x="1056" y="1327"></point>
      <point x="1173" y="1305"></point>
      <point x="1337" y="1247" type="curve"></point>
      <point x="1367" y="945" type="line"></point>
      <point x="1346" y="943"></point>
      <point x="1326" y="942"></point>
      <point x="1309" y="942" type="curve"></point>
      <point x="1272" y="974"></point>
      <point x="1243" y="1062"></point>
      <point x="1211" y="1100" type="curve" smooth="yes"></point>
      <point x="1118" y="1211"></point>
      <point x="999" y="1250"></point>
      <point x="872" y="1250" type="curve" smooth="yes"></point>
      <point x="563" y="1250"></point>
      <point x="342" y="1003"></point>
      <point x="342" y="675" type="curve" smooth="yes"></point>
      <point x="342" y="322"></point>
      <point x="559" y="62"></point>
      <point x="878" y="62" type="curve" smooth="yes"></point>
      <point x="985" y="62"></point>
      <point x="1066" y="78"></point>
      <point x="1145" y="127" type="curve"></point>
      <point x="1153" y="195"></point>
      <point x="1157" y="277"></point>
      <point x="1157" y="381" type="curve" smooth="yes"></point>
      <point x="1157" y="439"></point>
      <point x="1149" y="498"></point>
      <point x="1129" y="553" type="curve" smooth="yes"></point>
      <point x="1105" y="621"></point>
      <point x="995" y="609"></point>
      <point x="941" y="632" type="curve"></point>
      <point x="941" y="649"></point>
      <point x="943" y="684"></point>
      <point x="943" y="684" type="curve"></point>
      <point x="1543" y="684" type="line"></point>
      <point x="1543" y="684"></point>
      <point x="1545" y="648"></point>
      <point x="1545" y="632" type="curve"></point>
      <point x="1463" y="601"></point>
      <point x="1377" y="587"></point>
    </contour>
  </outline>
</glyph>
<glyph name="H" format="1">
  <advance width="1513"></advance>
  <unicode hex="0048"></unicode>
  <outline>
    <contour>
      <point x="1105" y="625" type="line"></point>
      <point x="391" y="625" type="line"></point>
      <point x="391" y="255" type="line" smooth="yes"></point>
      <point x="391" y="42"></point>
      <point x="470" y="110"></point>
      <point x="613" y="52" type="curve"></point>
      <point x="611" y="0" type="line"></point>
      <point x="-31" y="0" type="line"></point>
      <point x="-32" y="17"></point>
      <point x="-34" y="35"></point>
      <point x="-34" y="52" type="curve"></point>
      <point x="115" y="116"></point>
      <point x="176" y="43"></point>
      <point x="176" y="265" type="curve" smooth="yes"></point>
      <point x="176" y="1038" type="line" smooth="yes"></point>
      <point x="176" y="1245"></point>
      <point x="106" y="1188"></point>
      <point x="-33" y="1251" type="curve"></point>
      <point x="-31" y="1302" type="line"></point>
      <point x="610" y="1302" type="line"></point>
      <point x="612" y="1250" type="line"></point>
      <point x="471" y="1186"></point>
      <point x="391" y="1253"></point>
      <point x="391" y="1037" type="curve" smooth="yes"></point>
      <point x="391" y="712" type="line"></point>
      <point x="1105" y="712" type="line"></point>
      <point x="1105" y="1047" type="line" smooth="yes"></point>
      <point x="1105" y="1241"></point>
      <point x="1030" y="1188"></point>
      <point x="902" y="1251" type="curve"></point>
      <point x="904" y="1302" type="line"></point>
      <point x="1531" y="1302" type="line"></point>
      <point x="1533" y="1250" type="line"></point>
      <point x="1378" y="1195"></point>
      <point x="1320" y="1233"></point>
      <point x="1320" y="1030" type="curve" smooth="yes"></point>
      <point x="1320" y="267" type="line" smooth="yes"></point>
      <point x="1320" y="55"></point>
      <point x="1375" y="107"></point>
      <point x="1533" y="52" type="curve"></point>
      <point x="1533" y="0" type="line"></point>
      <point x="904" y="0" type="line"></point>
      <point x="902" y="52" type="line"></point>
      <point x="1026" y="119"></point>
      <point x="1105" y="38"></point>
      <point x="1105" y="252" type="curve" smooth="yes"></point>
    </contour>
  </outline>
</glyph>
<glyph name="I" format="1">
  <advance width="1008"></advance>
  <unicode hex="0049"></unicode>
  <outline>
    <contour>
      <point x="602" y="1081" type="curve" smooth="yes"></point>
      <point x="602" y="260" type="line" smooth="yes"></point>
      <point x="602" y="46"></point>
      <point x="679" y="108"></point>
      <point x="832" y="53" type="curve"></point>
      <point x="830" y="0" type="line"></point>
      <point x="165" y="0" type="line"></point>
      <point x="165" y="52" type="line"></point>
      <point x="312" y="119"></point>
      <point x="387" y="20"></point>
      <point x="387" y="278" type="curve" smooth="yes"></point>
      <point x="387" y="1030" type="line" smooth="yes"></point>
      <point x="387" y="1284"></point>
      <point x="284" y="1178"></point>
      <point x="161" y="1251" type="curve"></point>
      <point x="163" y="1302" type="line"></point>
      <point x="826" y="1302" type="line"></point>
      <point x="828" y="1250" type="line"></point>
      <point x="732" y="1217"></point>
      <point x="602" y="1217"></point>
    </contour>
  </outline>
</glyph>
<glyph name="J" format="1">
  <advance width="1109"></advance>
  <unicode hex="004A"></unicode>
  <outline>
    <contour>
      <point x="389" y="1302" type="line"></point>
      <point x="1056" y="1302" type="line"></point>
      <point x="1056" y="1251" type="line"></point>
      <point x="914" y="1190"></point>
      <point x="829" y="1260"></point>
      <point x="829" y="1044" type="curve" smooth="yes"></point>
      <point x="829" y="170" type="line" smooth="yes"></point>
      <point x="829" y="-59"></point>
      <point x="760" y="-333"></point>
      <point x="482" y="-333" type="curve" smooth="yes"></point>
      <point x="406" y="-333"></point>
      <point x="282" y="-304"></point>
      <point x="282" y="-207" type="curve" smooth="yes"></point>
      <point x="282" y="-155"></point>
      <point x="321" y="-122"></point>
      <point x="371" y="-122" type="curve" smooth="yes"></point>
      <point x="475" y="-122"></point>
      <point x="457" y="-251"></point>
      <point x="535" y="-251" type="curve" smooth="yes"></point>
      <point x="607" y="-251"></point>
      <point x="614" y="-90"></point>
      <point x="614" y="6" type="curve" smooth="yes"></point>
      <point x="614" y="1035" type="line" smooth="yes"></point>
      <point x="614" y="1249"></point>
      <point x="541" y="1195"></point>
      <point x="386" y="1250" type="curve"></point>
    </contour>
  </outline>
</glyph>
<glyph name="K" format="1">
  <advance width="1173"></advance>
  <unicode hex="004B"></unicode>
  <outline>
    <contour>
      <point x="328" y="1166" type="curve" smooth="yes"></point>
      <point x="328" y="716" type="line"></point>
      <point x="414" y="716" type="line"></point>
      <point x="910" y="1178" type="line"></point>
      <point x="913" y="1187"></point>
      <point x="914" y="1194"></point>
      <point x="914" y="1200" type="curve" smooth="yes"></point>
      <point x="914" y="1277"></point>
      <point x="721" y="1228"></point>
      <point x="721" y="1284" type="curve" smooth="yes"></point>
      <point x="721" y="1288"></point>
      <point x="723" y="1293"></point>
      <point x="726" y="1302" type="curve"></point>
      <point x="1270" y="1302" type="line"></point>
      <point x="1274" y="1284" type="line"></point>
      <point x="1274" y="1265"></point>
      <point x="1205" y="1247"></point>
      <point x="1132" y="1231" type="curve" smooth="yes"></point>
      <point x="1064" y="1216"></point>
      <point x="1018" y="1195"></point>
      <point x="990" y="1172" type="curve"></point>
      <point x="582" y="784" type="line"></point>
      <point x="1070" y="130" type="line"></point>
      <point x="1110" y="86"></point>
      <point x="1314" y="56"></point>
      <point x="1314" y="18" type="curve" smooth="yes"></point>
      <point x="1314" y="11"></point>
      <point x="1313" y="5"></point>
      <point x="1310" y="0" type="curve"></point>
      <point x="626" y="0" type="line"></point>
      <point x="621" y="11"></point>
      <point x="620" y="14"></point>
      <point x="620" y="17" type="curve" smooth="yes"></point>
      <point x="620" y="67"></point>
      <point x="794" y="33"></point>
      <point x="794" y="102" type="curve" smooth="yes"></point>
      <point x="794" y="106"></point>
      <point x="790" y="117"></point>
      <point x="777" y="134" type="curve"></point>
      <point x="418" y="660" type="line"></point>
      <point x="328" y="660" type="line"></point>
      <point x="328" y="124" type="line" smooth="yes"></point>
      <point x="328" y="9"></point>
      <point x="565" y="83"></point>
      <point x="565" y="19" type="curve" smooth="yes"></point>
      <point x="565" y="16"></point>
      <point x="563" y="10"></point>
      <point x="560" y="0" type="curve"></point>
      <point x="-109" y="0" type="line"></point>
      <point x="-112" y="9"></point>
      <point x="-113" y="14"></point>
      <point x="-113" y="17" type="curve" smooth="yes"></point>
      <point x="-113" y="76"></point>
      <point x="113" y="23"></point>
      <point x="113" y="130" type="curve" smooth="yes"></point>
      <point x="113" y="1166" type="line" smooth="yes"></point>
      <point x="113" y="1268"></point>
      <point x="-114" y="1230"></point>
      <point x="-114" y="1284" type="curve" smooth="yes"></point>
      <point x="-114" y="1288"></point>
      <point x="-112" y="1293"></point>
      <point x="-109" y="1302" type="curve"></point>
      <point x="556" y="1302" type="line"></point>
      <point x="559" y="1292"></point>
      <point x="560" y="1286"></point>
      <point x="560" y="1285" type="curve" smooth="yes"></point>
      <point x="560" y="1227"></point>
      <point x="328" y="1271"></point>
    </contour>
  </outline>
</glyph>
<glyph name="L" format="1">
  <advance width="1269"></advance>
  <unicode hex="004C"></unicode>
  <outline>
    <contour>
      <point x="148" y="240" type="curve" smooth="yes"></point>
      <point x="148" y="1034" type="line" smooth="yes"></point>
      <point x="148" y="1250"></point>
      <point x="82" y="1199"></point>
      <point x="-81" y="1251" type="curve"></point>
      <point x="-79" y="1302" type="line"></point>
      <point x="596" y="1302" type="line"></point>
      <point x="596" y="1250" type="line"></point>
      <point x="443" y="1188"></point>
      <point x="364" y="1263"></point>
      <point x="364" y="1040" type="curve" smooth="yes"></point>
      <point x="364" y="312" type="line" smooth="yes"></point>
      <point x="364" y="124"></point>
      <point x="392" y="76"></point>
      <point x="581" y="76" type="curve" smooth="yes"></point>
      <point x="625" y="76"></point>
      <point x="670" y="74"></point>
      <point x="714" y="74" type="curve" smooth="yes"></point>
      <point x="837" y="74"></point>
      <point x="954" y="91"></point>
      <point x="1020" y="217" type="curve" smooth="yes"></point>
      <point x="1042" y="260"></point>
      <point x="1060" y="308"></point>
      <point x="1094" y="344" type="curve"></point>
      <point x="1154" y="342" type="line"></point>
      <point x="1091" y="-11" type="line"></point>
      <point x="1018" y="-5"></point>
      <point x="945" y="0"></point>
      <point x="872" y="0" type="curve" smooth="yes"></point>
      <point x="-80" y="0" type="line"></point>
      <point x="-82" y="54" type="line"></point>
      <point x="27" y="92"></point>
      <point x="148" y="88"></point>
    </contour>
  </outline>
</glyph>
<glyph name="M" format="1">
  <advance width="1714"></advance>
  <unicode hex="004D"></unicode>
  <outline>
    <contour>
      <point x="1732" y="1250" type="line"></point>
      <point x="1643" y="1220.57"></point>
      <point x="1547" y="1195.11"></point>
      <point x="1547" y="1082" type="curve"></point>
      <point x="1619" y="271" type="line" smooth="yes"></point>
      <point x="1624" y="216"></point>
      <point x="1637" y="159"></point>
      <point x="1675" y="117" type="curve"></point>
      <point x="1695" y="59"></point>
      <point x="1800" y="83"></point>
      <point x="1840" y="52" type="curve"></point>
      <point x="1838" y="0" type="line"></point>
      <point x="1215" y="0" type="line"></point>
      <point x="1213" y="52" type="line"></point>
      <point x="1297" y="80"></point>
      <point x="1407" y="99"></point>
      <point x="1407" y="211" type="curve" smooth="yes"></point>
      <point x="1407" y="224" type="line"></point>
      <point x="1345" y="1068" type="line"></point>
      <point x="1212" y="705"></point>
      <point x="1004" y="368"></point>
      <point x="890" y="0" type="curve"></point>
      <point x="811" y="0" type="line"></point>
      <point x="695" y="357"></point>
      <point x="475" y="678"></point>
      <point x="336" y="1029" type="curve"></point>
      <point x="313" y="766"></point>
      <point x="271" y="495"></point>
      <point x="271" y="232" type="curve" smooth="yes"></point>
      <point x="271" y="101"></point>
      <point x="362" y="88"></point>
      <point x="462" y="52" type="curve"></point>
      <point x="460" y="0" type="line"></point>
      <point x="-21" y="0" type="line"></point>
      <point x="-23" y="52" type="line"></point>
      <point x="67" y="90"></point>
      <point x="164" y="94"></point>
      <point x="177" y="220" type="curve" smooth="yes"></point>
      <point x="253" y="968" type="line" smooth="yes"></point>
      <point x="257" y="1009"></point>
      <point x="260" y="1054"></point>
      <point x="260" y="1096" type="curve" smooth="yes"></point>
      <point x="260" y="1219"></point>
      <point x="155" y="1209"></point>
      <point x="75" y="1251" type="curve"></point>
      <point x="77" y="1302" type="line"></point>
      <point x="466" y="1302" type="line"></point>
      <point x="552" y="935"></point>
      <point x="777" y="615"></point>
      <point x="913" y="267" type="curve"></point>
      <point x="1017" y="486"></point>
      <point x="1316" y="1077"></point>
      <point x="1318" y="1302" type="curve"></point>
      <point x="1730" y="1302" type="line"></point>
    </contour>
  </outline>
</glyph>
<glyph name="N" format="1">
  <advance width="1524"></advance>
  <unicode hex="004E"></unicode>
  <outline>
    <contour>
      <point x="-24" y="54" type="curve"></point>
      <point x="85" y="85"></point>
      <point x="206" y="92"></point>
      <point x="219" y="239" type="curve"></point>
      <point x="219" y="1091" type="line"></point>
      <point x="148" y="1208"></point>
      <point x="74" y="1205"></point>
      <point x="-33" y="1250" type="curve"></point>
      <point x="-33" y="1302" type="line"></point>
      <point x="313" y="1302" type="line"></point>
      <point x="1254" y="329" type="line"></point>
      <point x="1254" y="958" type="line" smooth="yes"></point>
      <point x="1254" y="1019"></point>
      <point x="1247" y="1073"></point>
      <point x="1227" y="1131" type="curve" smooth="yes"></point>
      <point x="1194" y="1230"></point>
      <point x="1098" y="1211"></point>
      <point x="1022" y="1249" type="curve"></point>
      <point x="1022" y="1267"></point>
      <point x="1023" y="1284"></point>
      <point x="1025" y="1302" type="curve"></point>
      <point x="1552" y="1302" type="line"></point>
      <point x="1552" y="1248" type="line"></point>
      <point x="1374" y="1167"></point>
      <point x="1343" y="1184"></point>
      <point x="1341" y="959" type="curve" smooth="yes"></point>
      <point x="1339" y="757"></point>
      <point x="1336" y="555"></point>
      <point x="1336" y="353" type="curve" smooth="yes"></point>
      <point x="1336" y="231"></point>
      <point x="1356" y="112"></point>
      <point x="1359" y="-9" type="curve"></point>
      <point x="1343" y="-15"></point>
      <point x="1326" y="-16"></point>
      <point x="1310" y="-16" type="curve" smooth="yes"></point>
      <point x="1291" y="-16"></point>
      <point x="1271" y="-14"></point>
      <point x="1253" y="-9" type="curve"></point>
      <point x="1201" y="55"></point>
      <point x="1147" y="118"></point>
      <point x="1089" y="178" type="curve" smooth="yes"></point>
      <point x="299" y="1009" type="line"></point>
      <point x="299" y="307" type="line" smooth="yes"></point>
      <point x="299" y="262"></point>
      <point x="305" y="216"></point>
      <point x="316" y="172" type="curve" smooth="yes"></point>
      <point x="343" y="65"></point>
      <point x="467" y="92"></point>
      <point x="543" y="53" type="curve"></point>
      <point x="543" y="35"></point>
      <point x="542" y="18"></point>
      <point x="540" y="0" type="curve"></point>
      <point x="-22" y="0" type="line"></point>
      <point x="-24" y="18"></point>
      <point x="-24" y="36"></point>
    </contour>
  </outline>
</glyph>
<glyph name="O" format="1">
  <advance width="1614"></advance>
  <unicode hex="004F"></unicode>
  <outline>
    <contour>
      <point x="341" y="720" type="curve" smooth="yes"></point>
      <point x="341" y="340"></point>
      <point x="546" y="51"></point>
      <point x="833" y="51" type="curve" smooth="yes"></point>
      <point x="1072" y="51"></point>
      <point x="1254" y="248"></point>
      <point x="1254" y="585" type="curve" smooth="yes"></point>
      <point x="1254" y="958"></point>
      <point x="1056" y="1250"></point>
      <point x="765" y="1250" type="curve" smooth="yes"></point>
      <point x="537" y="1250"></point>
      <point x="341" y="1071"></point>
    </contour>
    <contour>
      <point x="108" y="637" type="curve" smooth="yes"></point>
      <point x="108" y="1095"></point>
      <point x="456" y="1327"></point>
      <point x="800" y="1327" type="curve" smooth="yes"></point>
      <point x="1174" y="1327"></point>
      <point x="1487" y="1063"></point>
      <point x="1487" y="648" type="curve" smooth="yes"></point>
      <point x="1487" y="240"></point>
      <point x="1163" y="-26"></point>
      <point x="780" y="-26" type="curve" smooth="yes"></point>
      <point x="431" y="-26"></point>
      <point x="108" y="224"></point>
    </contour>
  </outline>
</glyph>
<glyph name="P" format="1">
  <advance width="1159"></advance>
  <unicode hex="0050"></unicode>
  <outline>
    <contour>
      <point x="150" y="222" type="curve" smooth="yes"></point>
      <point x="150" y="1031" type="line" smooth="yes"></point>
      <point x="150" y="1235"></point>
      <point x="85" y="1189"></point>
      <point x="-60" y="1251" type="curve"></point>
      <point x="-58" y="1302" type="line"></point>
      <point x="437" y="1302" type="line" smooth="yes"></point>
      <point x="707" y="1302"></point>
      <point x="1117" y="1292"></point>
      <point x="1117" y="939" type="curve" smooth="yes"></point>
      <point x="1117" y="668"></point>
      <point x="903" y="548"></point>
      <point x="656" y="548" type="curve" smooth="yes"></point>
      <point x="623" y="548"></point>
      <point x="448" y="569"></point>
      <point x="448" y="614" type="curve" smooth="yes"></point>
      <point x="448" y="630"></point>
      <point x="474" y="632"></point>
      <point x="492" y="632" type="curve" smooth="yes"></point>
      <point x="507" y="632" type="line" smooth="yes"></point>
      <point x="720" y="632"></point>
      <point x="884" y="670"></point>
      <point x="884" y="925" type="curve" smooth="yes"></point>
      <point x="884" y="1161"></point>
      <point x="661" y="1232"></point>
      <point x="463" y="1232" type="curve" smooth="yes"></point>
      <point x="431" y="1232"></point>
      <point x="398" y="1230"></point>
      <point x="366" y="1227" type="curve"></point>
      <point x="366" y="275" type="line" smooth="yes"></point>
      <point x="366" y="33"></point>
      <point x="429" y="117"></point>
      <point x="593" y="52" type="curve"></point>
      <point x="591" y="0" type="line"></point>
      <point x="-58" y="0" type="line"></point>
      <point x="-61" y="52" type="line"></point>
      <point x="34" y="80"></point>
      <point x="150" y="96"></point>
    </contour>
  </outline>
</glyph>
<glyph name="Q" format="1">
  <advance width="1614"></advance>
  <unicode hex="0051"></unicode>
  <outline>
    <contour>
      <point x="337" y="729" type="curve" smooth="yes"></point>
      <point x="337" y="314"></point>
      <point x="557" y="51"></point>
      <point x="826" y="51" type="curve" smooth="yes"></point>
      <point x="1055" y="51"></point>
      <point x="1249" y="233"></point>
      <point x="1249" y="587" type="curve" smooth="yes"></point>
      <point x="1249" y="953"></point>
      <point x="1051" y="1250"></point>
      <point x="761" y="1250" type="curve" smooth="yes"></point>
      <point x="526" y="1250"></point>
      <point x="337" y="1052"></point>
    </contour>
    <contour>
      <point x="1581" y="-213" type="curve"></point>
      <point x="1593" y="-285" type="line"></point>
      <point x="1542" y="-302"></point>
      <point x="1464" y="-314"></point>
      <point x="1389" y="-314" type="curve" smooth="yes"></point>
      <point x="1253" y="-314"></point>
      <point x="1171" y="-293"></point>
      <point x="1069" y="-244" type="curve"></point>
      <point x="964" y="-195"></point>
      <point x="735" y="-73"></point>
      <point x="641" y="-11" type="curve"></point>
      <point x="329" y="71"></point>
      <point x="103" y="286"></point>
      <point x="103" y="641" type="curve" smooth="yes"></point>
      <point x="103" y="1061"></point>
      <point x="418" y="1327"></point>
      <point x="795" y="1327" type="curve" smooth="yes"></point>
      <point x="1169" y="1327"></point>
      <point x="1482" y="1063"></point>
      <point x="1482" y="651" type="curve" smooth="yes"></point>
      <point x="1482" y="295"></point>
      <point x="1232" y="51"></point>
      <point x="915" y="-11" type="curve"></point>
      <point x="1180" y="-138"></point>
      <point x="1299" y="-188"></point>
    </contour>
  </outline>
</glyph>
<glyph name="R" format="1">
  <advance width="1311"></advance>
  <unicode hex="0052"></unicode>
  <outline>
    <contour>
      <point x="1177" y="-26" type="curve" smooth="yes"></point>
      <point x="898" y="-26"></point>
      <point x="739" y="344"></point>
      <point x="607" y="542" type="curve" smooth="yes"></point>
      <point x="564" y="607"></point>
      <point x="545" y="626"></point>
      <point x="464" y="632" type="curve" smooth="yes"></point>
      <point x="401" y="636" type="line"></point>
      <point x="401" y="251" type="line" smooth="yes"></point>
      <point x="401" y="36"></point>
      <point x="486" y="114"></point>
      <point x="617" y="52" type="curve"></point>
      <point x="615" y="0" type="line"></point>
      <point x="-16" y="0" type="line"></point>
      <point x="-18" y="52" type="line"></point>
      <point x="112" y="124"></point>
      <point x="186" y="22"></point>
      <point x="186" y="277" type="curve" smooth="yes"></point>
      <point x="186" y="1035" type="line" smooth="yes"></point>
      <point x="186" y="1231"></point>
      <point x="120" y="1189"></point>
      <point x="-18" y="1251" type="curve"></point>
      <point x="-16" y="1303" type="line"></point>
      <point x="443" y="1303" type="line" smooth="yes"></point>
      <point x="691" y="1303"></point>
      <point x="1131" y="1302"></point>
      <point x="1131" y="970" type="curve" smooth="yes"></point>
      <point x="1131" y="770"></point>
      <point x="941" y="672"></point>
      <point x="767" y="647" type="curve"></point>
      <point x="884" y="496"></point>
      <point x="997" y="338"></point>
      <point x="1121" y="193" type="curve" smooth="yes"></point>
      <point x="1184" y="119"></point>
      <point x="1261" y="79"></point>
      <point x="1353" y="54" type="curve"></point>
      <point x="1353" y="-2" type="line"></point>
      <point x="1295" y="-16"></point>
      <point x="1236" y="-26"></point>
    </contour>
    <contour>
      <point x="401" y="1227" type="line"></point>
      <point x="401" y="703" type="line"></point>
      <point x="417" y="703"></point>
      <point x="435" y="704"></point>
      <point x="453" y="704" type="curve" smooth="yes"></point>
      <point x="645" y="707"></point>
      <point x="898" y="710"></point>
      <point x="898" y="958" type="curve" smooth="yes"></point>
      <point x="898" y="1226"></point>
      <point x="622" y="1227"></point>
      <point x="423" y="1227" type="curve" smooth="yes"></point>
    </contour>
  </outline>
</glyph>
<glyph name="S" format="1">
  <advance width="1210"></advance>
  <unicode hex="0053"></unicode>
  <outline>
    <contour>
      <point x="145" y="77" type="curve"></point>
      <point x="145" y="400" type="line"></point>
      <point x="204" y="402" type="line"></point>
      <point x="223" y="370"></point>
      <point x="231" y="333"></point>
      <point x="242" y="297" type="curve" smooth="yes"></point>
      <point x="290" y="137"></point>
      <point x="439" y="58"></point>
      <point x="599" y="58" type="curve" smooth="yes"></point>
      <point x="724" y="58"></point>
      <point x="871" y="124"></point>
      <point x="871" y="268" type="curve" smooth="yes"></point>
      <point x="871" y="543"></point>
      <point x="162" y="617"></point>
      <point x="162" y="991" type="curve" smooth="yes"></point>
      <point x="162" y="1237"></point>
      <point x="402" y="1327"></point>
      <point x="612" y="1327" type="curve" smooth="yes"></point>
      <point x="743" y="1327"></point>
      <point x="876" y="1294"></point>
      <point x="993" y="1234" type="curve"></point>
      <point x="1006" y="949" type="line"></point>
      <point x="944" y="949" type="line"></point>
      <point x="927" y="981"></point>
      <point x="918" y="1017"></point>
      <point x="906" y="1051" type="curve" smooth="yes"></point>
      <point x="859" y="1187"></point>
      <point x="734" y="1250"></point>
      <point x="596" y="1250" type="curve" smooth="yes"></point>
      <point x="494" y="1250"></point>
      <point x="349" y="1198"></point>
      <point x="349" y="1075" type="curve" smooth="yes"></point>
      <point x="349" y="817"></point>
      <point x="1066" y="737"></point>
      <point x="1066" y="344" type="curve" smooth="yes"></point>
      <point x="1066" y="79"></point>
      <point x="816" y="-26"></point>
      <point x="586" y="-26" type="curve" smooth="yes"></point>
      <point x="450" y="-26"></point>
      <point x="255" y="10"></point>
    </contour>
  </outline>
</glyph>
<glyph name="T" format="1">
  <advance width="1366"></advance>
  <unicode hex="0054"></unicode>
  <outline>
    <contour>
      <point x="770" y="241" type="curve" smooth="yes"></point>
      <point x="770" y="1228" type="line"></point>
      <point x="624" y="1228" type="line" smooth="yes"></point>
      <point x="575" y="1228"></point>
      <point x="525" y="1227"></point>
      <point x="478" y="1220" type="curve" smooth="yes"></point>
      <point x="372" y="1204"></point>
      <point x="325" y="1056"></point>
      <point x="264" y="982" type="curve"></point>
      <point x="218" y="982" type="line"></point>
      <point x="243" y="1308" type="line"></point>
      <point x="320" y="1305"></point>
      <point x="398" y="1302"></point>
      <point x="475" y="1302" type="curve" smooth="yes"></point>
      <point x="669" y="1302"></point>
      <point x="864" y="1298"></point>
      <point x="1059" y="1298" type="curve" smooth="yes"></point>
      <point x="1212" y="1298"></point>
      <point x="1365" y="1300"></point>
      <point x="1517" y="1310" type="curve"></point>
      <point x="1549" y="981" type="line"></point>
      <point x="1501" y="981" type="line"></point>
      <point x="1442" y="1054"></point>
      <point x="1395" y="1205"></point>
      <point x="1293" y="1220" type="curve" smooth="yes"></point>
      <point x="1242" y="1228"></point>
      <point x="1190" y="1229"></point>
      <point x="1138" y="1229" type="curve" smooth="yes"></point>
      <point x="1093" y="1229"></point>
      <point x="1048" y="1228"></point>
      <point x="1004" y="1228" type="curve" smooth="yes"></point>
      <point x="985" y="1228" type="line"></point>
      <point x="985" y="241" type="line" smooth="yes"></point>
      <point x="985" y="80"></point>
      <point x="1074" y="69"></point>
      <point x="1211" y="52" type="curve"></point>
      <point x="1211" y="35"></point>
      <point x="1211" y="17"></point>
      <point x="1209" y="0" type="curve"></point>
      <point x="547" y="0" type="line"></point>
      <point x="545" y="52" type="line"></point>
      <point x="653" y="89"></point>
      <point x="770" y="95"></point>
    </contour>
  </outline>
</glyph>
<glyph name="U" format="1">
  <advance width="1428"></advance>
  <unicode hex="0055"></unicode>
  <outline>
    <contour>
      <point x="-88" y="1302" type="line"></point>
      <point x="569" y="1302" type="line"></point>
      <point x="571" y="1250" type="line"></point>
      <point x="404" y="1190"></point>
      <point x="339" y="1251"></point>
      <point x="339" y="1023" type="curve" smooth="yes"></point>
      <point x="339" y="596" type="line" smooth="yes"></point>
      <point x="339" y="303"></point>
      <point x="435" y="82"></point>
      <point x="768" y="82" type="curve" smooth="yes"></point>
      <point x="1100" y="82"></point>
      <point x="1197" y="322"></point>
      <point x="1197" y="613" type="curve" smooth="yes"></point>
      <point x="1197" y="1006" type="line" smooth="yes"></point>
      <point x="1197" y="1236"></point>
      <point x="1141" y="1190"></point>
      <point x="964" y="1251" type="curve"></point>
      <point x="964" y="1302" type="line"></point>
      <point x="1503" y="1302" type="line"></point>
      <point x="1505" y="1250" type="line"></point>
      <point x="1440" y="1216"></point>
      <point x="1322" y="1238"></point>
      <point x="1295" y="1150" type="curve" smooth="yes"></point>
      <point x="1283" y="1109"></point>
      <point x="1279" y="1065"></point>
      <point x="1279" y="1022" type="curve" smooth="yes"></point>
      <point x="1279" y="922"></point>
      <point x="1283" y="817"></point>
      <point x="1283" y="714" type="curve" smooth="yes"></point>
      <point x="1283" y="330"></point>
      <point x="1227" y="-26"></point>
      <point x="701" y="-26" type="curve" smooth="yes"></point>
      <point x="425" y="-26"></point>
      <point x="164" y="101"></point>
      <point x="131" y="401" type="curve" smooth="yes"></point>
      <point x="122" y="488"></point>
      <point x="119" y="576"></point>
      <point x="119" y="664" type="curve" smooth="yes"></point>
      <point x="119" y="785"></point>
      <point x="124" y="906"></point>
      <point x="124" y="1024" type="curve" smooth="yes"></point>
      <point x="124" y="1062"></point>
      <point x="123" y="1102"></point>
      <point x="114" y="1139" type="curve" smooth="yes"></point>
      <point x="96" y="1218"></point>
      <point x="-27" y="1228"></point>
      <point x="-91" y="1251" type="curve"></point>
    </contour>
  </outline>
</glyph>
<glyph name="V" format="1">
  <advance width="1143"></advance>
  <unicode hex="0056"></unicode>
  <outline>
    <contour>
      <point x="275" y="1138" type="curve" smooth="yes"></point>
      <point x="275" y="1073"></point>
      <point x="560" y="486"></point>
      <point x="652" y="251" type="curve"></point>
      <point x="731" y="465"></point>
      <point x="975" y="976"></point>
      <point x="975" y="1114" type="curve" smooth="yes"></point>
      <point x="975" y="1217"></point>
      <point x="854" y="1216"></point>
      <point x="778" y="1240" type="curve"></point>
      <point x="776" y="1249"></point>
      <point x="775" y="1259"></point>
      <point x="775" y="1269" type="curve" smooth="yes"></point>
      <point x="775" y="1280"></point>
      <point x="776" y="1291"></point>
      <point x="778" y="1302" type="curve"></point>
      <point x="1294" y="1302" type="line"></point>
      <point x="1296" y="1284"></point>
      <point x="1297" y="1265"></point>
      <point x="1297" y="1247" type="curve"></point>
      <point x="1258" y="1220"></point>
      <point x="1211" y="1201"></point>
      <point x="1168" y="1181" type="curve" smooth="yes"></point>
      <point x="1070" y="1135"></point>
      <point x="1022" y="929"></point>
      <point x="981" y="833" type="curve" smooth="yes"></point>
      <point x="865" y="559"></point>
      <point x="643" y="-11"></point>
      <point x="643" y="-11" type="curve"></point>
      <point x="643" y="-11"></point>
      <point x="611" y="-19"></point>
      <point x="594" y="-19" type="curve" smooth="yes"></point>
      <point x="580" y="-19"></point>
      <point x="567" y="-19"></point>
      <point x="553" y="-17" type="curve"></point>
      <point x="392" y="353"></point>
      <point x="228" y="720"></point>
      <point x="61" y="1088" type="curve" smooth="yes"></point>
      <point x="13" y="1197"></point>
      <point x="-28" y="1213"></point>
      <point x="-134" y="1245" type="curve"></point>
      <point x="-132" y="1302" type="line"></point>
      <point x="454" y="1302" type="line"></point>
      <point x="455" y="1282"></point>
      <point x="460" y="1262"></point>
      <point x="460" y="1242" type="curve"></point>
      <point x="408" y="1225"></point>
      <point x="275" y="1211"></point>
    </contour>
  </outline>
</glyph>
<glyph name="W" format="1">
  <advance width="1614"></advance>
  <unicode hex="0057"></unicode>
  <outline>
    <contour>
      <point x="220" y="1182" type="curve" smooth="yes"></point>
      <point x="220" y="1161"></point>
      <point x="448" y="524"></point>
      <point x="510" y="353" type="curve"></point>
      <point x="779" y="1071" type="line"></point>
      <point x="762" y="1111"></point>
      <point x="747" y="1152"></point>
      <point x="730" y="1192" type="curve"></point>
      <point x="704" y="1214"></point>
      <point x="545" y="1260"></point>
      <point x="545" y="1282" type="curve" smooth="yes"></point>
      <point x="545" y="1285"></point>
      <point x="551" y="1299"></point>
      <point x="552" y="1302" type="curve"></point>
      <point x="1194" y="1302" type="line"></point>
      <point x="1195" y="1298"></point>
      <point x="1200" y="1286"></point>
      <point x="1200" y="1282" type="curve" smooth="yes"></point>
      <point x="1200" y="1211"></point>
      <point x="1008" y="1274"></point>
      <point x="1008" y="1188" type="curve" smooth="yes"></point>
      <point x="1008" y="1156"></point>
      <point x="1238" y="445"></point>
      <point x="1269" y="355" type="curve"></point>
      <point x="1302" y="456"></point>
      <point x="1531" y="1135"></point>
      <point x="1531" y="1187" type="curve" smooth="yes"></point>
      <point x="1531" y="1260"></point>
      <point x="1386" y="1241"></point>
      <point x="1330" y="1271" type="curve"></point>
      <point x="1324" y="1282" type="line"></point>
      <point x="1330" y="1302" type="line"></point>
      <point x="1847" y="1302" type="line" smooth="yes"></point>
      <point x="1852" y="1302"></point>
      <point x="1862" y="1296"></point>
      <point x="1865" y="1291" type="curve"></point>
      <point x="1865" y="1237"></point>
      <point x="1627" y="1259"></point>
      <point x="1591" y="1157" type="curve" smooth="yes"></point>
      <point x="1572" y="1103"></point>
      <point x="1557" y="1047"></point>
      <point x="1541" y="992" type="curve" smooth="yes"></point>
      <point x="1242" y="1" type="line" smooth="yes"></point>
      <point x="1237" y="-16"></point>
      <point x="1214" y="-19"></point>
      <point x="1200" y="-19" type="curve" smooth="yes"></point>
      <point x="1182" y="-19"></point>
      <point x="1166" y="-16"></point>
      <point x="1157" y="1" type="curve" smooth="yes"></point>
      <point x="1132" y="49"></point>
      <point x="1119" y="115"></point>
      <point x="1101" y="167" type="curve" smooth="yes"></point>
      <point x="817" y="994" type="line"></point>
      <point x="558" y="249" type="line" smooth="yes"></point>
      <point x="531" y="171"></point>
      <point x="509" y="74"></point>
      <point x="472" y="1" type="curve" smooth="yes"></point>
      <point x="463" y="-17"></point>
      <point x="449" y="-21"></point>
      <point x="430" y="-21" type="curve" smooth="yes"></point>
      <point x="374" y="-21"></point>
      <point x="343" y="119"></point>
      <point x="327" y="161" type="curve" smooth="yes"></point>
      <point x="206" y="483"></point>
      <point x="88" y="807"></point>
      <point x="-33" y="1128" type="curve" smooth="yes"></point>
      <point x="-73" y="1232"></point>
      <point x="-191" y="1216"></point>
      <point x="-256" y="1280" type="curve"></point>
      <point x="-249" y="1302" type="line"></point>
      <point x="392" y="1302" type="line"></point>
      <point x="393" y="1297"></point>
      <point x="397" y="1288"></point>
      <point x="397" y="1282" type="curve" smooth="yes"></point>
      <point x="397" y="1217"></point>
      <point x="220" y="1270"></point>
    </contour>
  </outline>
</glyph>
<glyph name="X" format="1">
  <advance width="1333"></advance>
  <unicode hex="0058"></unicode>
  <outline>
    <contour>
      <point x="994" y="1029" type="curve" smooth="yes"></point>
      <point x="752" y="725" type="line"></point>
      <point x="1123" y="236" type="line" smooth="yes"></point>
      <point x="1198" y="137"></point>
      <point x="1233" y="100"></point>
      <point x="1313" y="78" type="curve" smooth="yes"></point>
      <point x="1344" y="69"></point>
      <point x="1385" y="59"></point>
      <point x="1403" y="52" type="curve"></point>
      <point x="1403" y="36"></point>
      <point x="1402" y="19"></point>
      <point x="1401" y="0" type="curve"></point>
      <point x="749" y="0" type="line"></point>
      <point x="747" y="17"></point>
      <point x="747" y="34"></point>
      <point x="747" y="52" type="curve"></point>
      <point x="822" y="69"></point>
      <point x="903" y="98"></point>
      <point x="903" y="156" type="curve" smooth="yes"></point>
      <point x="903" y="171"></point>
      <point x="897" y="197"></point>
      <point x="883" y="216" type="curve" smooth="yes"></point>
      <point x="620" y="565" type="line"></point>
      <point x="397" y="294" type="line" smooth="yes"></point>
      <point x="358" y="246"></point>
      <point x="318" y="182"></point>
      <point x="318" y="144" type="curve" smooth="yes"></point>
      <point x="318" y="94"></point>
      <point x="401" y="73"></point>
      <point x="482" y="57" type="curve"></point>
      <point x="483" y="48"></point>
      <point x="483" y="39"></point>
      <point x="483" y="30" type="curve" smooth="yes"></point>
      <point x="483" y="21"></point>
      <point x="483" y="11"></point>
      <point x="482" y="0" type="curve"></point>
      <point x="-36" y="0" type="line"></point>
      <point x="-38" y="17"></point>
      <point x="-38" y="34"></point>
      <point x="-38" y="52" type="curve"></point>
      <point x="14" y="73"></point>
      <point x="120" y="94"></point>
      <point x="186" y="165" type="curve" smooth="yes"></point>
      <point x="208" y="190"></point>
      <point x="233" y="219"></point>
      <point x="260" y="252" type="curve" smooth="yes"></point>
      <point x="573" y="628" type="line"></point>
      <point x="214" y="1097" type="line" smooth="yes"></point>
      <point x="131" y="1206"></point>
      <point x="31" y="1220"></point>
      <point x="-35" y="1246" type="curve"></point>
      <point x="-35" y="1262"></point>
      <point x="-35" y="1279"></point>
      <point x="-33" y="1302" type="curve"></point>
      <point x="606" y="1302" type="line"></point>
      <point x="607" y="1285"></point>
      <point x="608" y="1267"></point>
      <point x="608" y="1250" type="curve"></point>
      <point x="531" y="1234"></point>
      <point x="453" y="1198"></point>
      <point x="453" y="1144" type="curve" smooth="yes"></point>
      <point x="453" y="1129"></point>
      <point x="460" y="1115"></point>
      <point x="470" y="1095" type="curve"></point>
      <point x="703" y="788" type="line"></point>
      <point x="886" y="1014" type="line" smooth="yes"></point>
      <point x="936" y="1076"></point>
      <point x="948" y="1096"></point>
      <point x="948" y="1130" type="curve" smooth="yes"></point>
      <point x="948" y="1183"></point>
      <point x="892" y="1228"></point>
      <point x="802" y="1246" type="curve"></point>
      <point x="800" y="1254"></point>
      <point x="800" y="1263"></point>
      <point x="800" y="1273" type="curve" smooth="yes"></point>
      <point x="800" y="1281"></point>
      <point x="800" y="1291"></point>
      <point x="802" y="1302" type="curve"></point>
      <point x="1315" y="1302" type="line"></point>
      <point x="1317" y="1285"></point>
      <point x="1317" y="1267"></point>
      <point x="1317" y="1250" type="curve"></point>
      <point x="1275" y="1233"></point>
      <point x="1152" y="1208"></point>
      <point x="1077" y="1126" type="curve" smooth="yes"></point>
      <point x="1051" y="1098"></point>
      <point x="1023" y="1066"></point>
    </contour>
  </outline>
</glyph>
<glyph name="Y" format="1">
  <advance width="993"></advance>
  <unicode hex="0059"></unicode>
  <outline>
    <contour>
      <point x="1170" y="1250" type="line"></point>
      <point x="1072" y="1209.94"></point>
      <point x="993" y="1180.48"></point>
      <point x="932" y="1086" type="curve" smooth="yes"></point>
      <point x="604" y="583" type="line"></point>
      <point x="604" y="246" type="line" smooth="yes"></point>
      <point x="604" y="41"></point>
      <point x="693" y="111"></point>
      <point x="821" y="52" type="curve"></point>
      <point x="819" y="0" type="line"></point>
      <point x="173" y="0" type="line"></point>
      <point x="171" y="52" type="line"></point>
      <point x="294" y="121"></point>
      <point x="389" y="25"></point>
      <point x="389" y="254" type="curve" smooth="yes"></point>
      <point x="389" y="562" type="line"></point>
      <point x="24" y="1134" type="line" smooth="yes"></point>
      <point x="-8" y="1185"></point>
      <point x="-114" y="1238"></point>
      <point x="-172" y="1251" type="curve"></point>
      <point x="-172" y="1302" type="line"></point>
      <point x="447" y="1302" type="line"></point>
      <point x="449" y="1250" type="line"></point>
      <point x="396" y="1241"></point>
      <point x="288" y="1211"></point>
      <point x="288" y="1142" type="curve" smooth="yes"></point>
      <point x="288" y="1081"></point>
      <point x="528" y="738"></point>
      <point x="573" y="667" type="curve"></point>
      <point x="600" y="711"></point>
      <point x="833" y="1037"></point>
      <point x="833" y="1140" type="curve" smooth="yes"></point>
      <point x="833" y="1211"></point>
      <point x="720" y="1230"></point>
      <point x="668" y="1246" type="curve"></point>
      <point x="666" y="1273" type="line" smooth="yes"></point>
      <point x="666" y="1282"></point>
      <point x="667" y="1291"></point>
      <point x="668" y="1302" type="curve"></point>
      <point x="1168" y="1302" type="line"></point>
    </contour>
  </outline>
</glyph>
<glyph name="Z" format="1">
  <advance width="1214"></advance>
  <unicode hex="005A"></unicode>
  <outline>
    <contour>
      <point x="1121" y="357" type="line"></point>
      <point x="1061" y="-10" type="line"></point>
      <point x="1020" y="-10" type="line" smooth="yes"></point>
      <point x="971" y="-10"></point>
      <point x="923" y="0"></point>
      <point x="876" y="0" type="curve" smooth="yes"></point>
      <point x="-20" y="0" type="line"></point>
      <point x="-24" y="43" type="line"></point>
      <point x="755" y="1119" type="line" smooth="yes"></point>
      <point x="766" y="1134"></point>
      <point x="829" y="1225"></point>
      <point x="829" y="1225" type="curve"></point>
      <point x="433" y="1225" type="line" smooth="yes"></point>
      <point x="322" y="1225"></point>
      <point x="240" y="1224"></point>
      <point x="178" y="1112" type="curve" smooth="yes"></point>
      <point x="152" y="1065"></point>
      <point x="129" y="1016"></point>
      <point x="98" y="972" type="curve"></point>
      <point x="80" y="972"></point>
      <point x="63" y="973"></point>
      <point x="45" y="975" type="curve"></point>
      <point x="72" y="1307" type="line"></point>
      <point x="104" y="1307" type="line" smooth="yes"></point>
      <point x="432" y="1307"></point>
      <point x="761" y="1302"></point>
      <point x="1090" y="1302" type="curve"></point>
      <point x="1102" y="1297"></point>
      <point x="1103" y="1283"></point>
      <point x="1103" y="1272" type="curve" smooth="yes"></point>
      <point x="1102" y="1245" type="line"></point>
      <point x="337" y="198" type="line" smooth="yes"></point>
      <point x="311" y="162"></point>
      <point x="286" y="127"></point>
      <point x="263" y="89" type="curve"></point>
      <point x="292" y="80"></point>
      <point x="322" y="74"></point>
      <point x="353" y="74" type="curve" smooth="yes"></point>
      <point x="492" y="74" type="line" smooth="yes"></point>
      <point x="599" y="74"></point>
      <point x="708" y="76"></point>
      <point x="812" y="92" type="curve" smooth="yes"></point>
      <point x="891" y="104"></point>
      <point x="922" y="134"></point>
      <point x="959" y="203" type="curve" smooth="yes"></point>
      <point x="988" y="257"></point>
      <point x="1022" y="315"></point>
      <point x="1065" y="359" type="curve"></point>
    </contour>
  </outline>
</glyph>
<glyph name="bracketleft" format="1">
  <advance width="857"></advance>
  <unicode hex="005B"></unicode>
  <outline>
    <contour>
      <point x="177" y="1449" type="curve" smooth="yes"></point>
      <point x="177" y="1485"></point>
      <point x="230" y="1524"></point>
      <point x="264" y="1524" type="curve" smooth="yes"></point>
      <point x="416" y="1524"></point>
      <point x="569" y="1529"></point>
      <point x="721" y="1529" type="curve" smooth="yes"></point>
      <point x="767" y="1529"></point>
      <point x="820" y="1509"></point>
      <point x="820" y="1455" type="curve" smooth="yes"></point>
      <point x="820" y="1399"></point>
      <point x="773" y="1380"></point>
      <point x="725" y="1380" type="curve" smooth="yes"></point>
      <point x="333" y="1380" type="line"></point>
      <point x="333" y="1097"></point>
      <point x="315" y="815"></point>
      <point x="315" y="532" type="curve" smooth="yes"></point>
      <point x="315" y="334"></point>
      <point x="317" y="136"></point>
      <point x="320" y="-62" type="curve"></point>
      <point x="442" y="-61"></point>
      <point x="564" y="-56"></point>
      <point x="686" y="-56" type="curve" smooth="yes"></point>
      <point x="722" y="-56"></point>
      <point x="761" y="-109"></point>
      <point x="761" y="-143" type="curve" smooth="yes"></point>
      <point x="761" y="-200"></point>
      <point x="723" y="-214"></point>
      <point x="673" y="-214" type="curve" smooth="yes"></point>
      <point x="531" y="-214"></point>
      <point x="389" y="-199"></point>
      <point x="247" y="-199" type="curve" smooth="yes"></point>
      <point x="193" y="-199"></point>
      <point x="183" y="-165"></point>
      <point x="183" y="-119" type="curve" smooth="yes"></point>
      <point x="183" y="18"></point>
      <point x="188" y="155"></point>
      <point x="188" y="292" type="curve" smooth="yes"></point>
      <point x="188" y="678"></point>
      <point x="177" y="1063"></point>
    </contour>
  </outline>
</glyph>
<glyph name="backslash" format="1">
  <advance width="857"></advance>
  <unicode hex="005C"></unicode>
  <outline>
    <contour>
      <point x="72" y="1378" type="curve"></point>
      <point x="95" y="1396"></point>
      <point x="123" y="1402"></point>
      <point x="152" y="1402" type="curve"></point>
      <point x="222" y="1336"></point>
      <point x="238" y="1229"></point>
      <point x="271" y="1142" type="curve" smooth="yes"></point>
      <point x="672" y="72" type="line" smooth="yes"></point>
      <point x="693" y="17"></point>
      <point x="694" y="-58"></point>
      <point x="699" y="-117" type="curve"></point>
      <point x="680" y="-117" type="line" smooth="yes"></point>
      <point x="661" y="-117"></point>
      <point x="641" y="-117"></point>
      <point x="622" y="-112" type="curve"></point>
      <point x="597" y="-58"></point>
      <point x="576" y="-3"></point>
      <point x="557" y="53" type="curve" smooth="yes"></point>
      <point x="405" y="498"></point>
      <point x="207" y="928"></point>
    </contour>
  </outline>
</glyph>
<glyph name="bracketright" format="1">
  <advance width="1047"></advance>
  <unicode hex="005D"></unicode>
  <outline>
    <contour>
      <point x="404" y="-214" type="curve" smooth="yes"></point>
      <point x="354" y="-214"></point>
      <point x="316" y="-200"></point>
      <point x="316" y="-143" type="curve" smooth="yes"></point>
      <point x="316" y="-64"></point>
      <point x="402" y="-54"></point>
      <point x="463" y="-54" type="curve" smooth="yes"></point>
      <point x="513" y="-54"></point>
      <point x="562" y="-63"></point>
      <point x="612" y="-63" type="curve" smooth="yes"></point>
      <point x="757" y="-63" type="line"></point>
      <point x="760" y="135"></point>
      <point x="762" y="334"></point>
      <point x="762" y="532" type="curve" smooth="yes"></point>
      <point x="762" y="815"></point>
      <point x="745" y="1097"></point>
      <point x="744" y="1380" type="curve"></point>
      <point x="338" y="1380" type="line" smooth="yes"></point>
      <point x="296" y="1380"></point>
      <point x="257" y="1411"></point>
      <point x="257" y="1455" type="curve" smooth="yes"></point>
      <point x="257" y="1509"></point>
      <point x="310" y="1529"></point>
      <point x="356" y="1529" type="curve" smooth="yes"></point>
      <point x="508" y="1529"></point>
      <point x="661" y="1524"></point>
      <point x="813" y="1524" type="curve" smooth="yes"></point>
      <point x="847" y="1524"></point>
      <point x="900" y="1485"></point>
      <point x="900" y="1449" type="curve" smooth="yes"></point>
      <point x="900" y="1113"></point>
      <point x="892" y="776"></point>
      <point x="892" y="440" type="curve" smooth="yes"></point>
      <point x="892" y="219"></point>
      <point x="909" y="57"></point>
      <point x="909" y="-48" type="curve" smooth="yes"></point>
      <point x="909" y="-150"></point>
      <point x="893" y="-199"></point>
      <point x="830" y="-199" type="curve" smooth="yes"></point>
      <point x="688" y="-199"></point>
      <point x="546" y="-214"></point>
    </contour>
  </outline>
</glyph>
<glyph name="asciicircum" format="1">
  <advance width="1143"></advance>
  <unicode hex="005E"></unicode>
  <outline>
    <contour>
      <point x="615" y="1369" type="curve"></point>
      <point x="726" y="1174"></point>
      <point x="868" y="939"></point>
      <point x="956" y="738" type="curve"></point>
      <point x="926" y="726"></point>
      <point x="893" y="722"></point>
      <point x="861" y="722" type="curve"></point>
      <point x="741" y="862"></point>
      <point x="653" y="1038"></point>
      <point x="556" y="1193" type="curve"></point>
      <point x="454" y="1037"></point>
      <point x="364" y="870"></point>
      <point x="250" y="722" type="curve"></point>
      <point x="218" y="722"></point>
      <point x="186" y="726"></point>
      <point x="156" y="738" type="curve"></point>
      <point x="231" y="911"></point>
      <point x="364" y="1130"></point>
      <point x="458" y="1300" type="curve" smooth="yes"></point>
      <point x="477" y="1335"></point>
      <point x="503" y="1367"></point>
      <point x="535" y="1392" type="curve"></point>
      <point x="563" y="1392"></point>
      <point x="591" y="1384"></point>
    </contour>
  </outline>
</glyph>
<glyph name="underscore" format="1">
  <advance width="1143"></advance>
  <unicode hex="005F"></unicode>
  <outline>
    <contour>
      <point x="1106" y="-129" type="curve"></point>
      <point x="1072" y="-145"></point>
      <point x="1023" y="-147"></point>
      <point x="981" y="-147" type="curve" smooth="yes"></point>
      <point x="315" y="-147" type="line"></point>
      <point x="276" y="-131"></point>
      <point x="257" y="-112"></point>
      <point x="257" y="-68" type="curve"></point>
      <point x="302" y="-49"></point>
      <point x="360" y="-49"></point>
      <point x="409" y="-49" type="curve" smooth="yes"></point>
      <point x="1048" y="-49" type="line"></point>
      <point x="1085" y="-65"></point>
      <point x="1106" y="-88"></point>
    </contour>
  </outline>
</glyph>
<glyph name="grave" format="1">
  <advance width="745"></advance>
  <unicode hex="0060"></unicode>
  <outline>
    <contour>
      <point x="239" y="1442" type="curve" smooth="yes"></point>
      <point x="224" y="1455"></point>
      <point x="218" y="1471"></point>
      <point x="218" y="1488" type="curve" smooth="yes"></point>
      <point x="218" y="1528"></point>
      <point x="257" y="1570"></point>
      <point x="299" y="1570" type="curve" smooth="yes"></point>
      <point x="320" y="1570"></point>
      <point x="342" y="1560"></point>
      <point x="360" y="1536" type="curve" smooth="yes"></point>
      <point x="425" y="1449"></point>
      <point x="564" y="1262"></point>
      <point x="647" y="1152" type="curve" smooth="yes"></point>
      <point x="654" y="1142"></point>
      <point x="658" y="1131"></point>
      <point x="658" y="1122" type="curve" smooth="yes"></point>
      <point x="658" y="1107"></point>
      <point x="650" y="1096"></point>
      <point x="635" y="1096" type="curve" smooth="yes"></point>
      <point x="625" y="1096"></point>
      <point x="611" y="1102"></point>
      <point x="595" y="1116" type="curve" smooth="yes"></point>
      <point x="526" y="1177"></point>
      <point x="341" y="1349"></point>
    </contour>
  </outline>
</glyph>
<glyph name="a" format="1">
  <advance width="1047"></advance>
  <unicode hex="0061"></unicode>
  <outline>
    <contour>
      <point x="648" y="200" type="curve"></point>
      <point x="648" y="455" type="line"></point>
      <point x="545" y="420"></point>
      <point x="306" y="361"></point>
      <point x="306" y="220" type="curve" smooth="yes"></point>
      <point x="306" y="142"></point>
      <point x="351" y="93"></point>
      <point x="430" y="93" type="curve" smooth="yes"></point>
      <point x="514" y="93"></point>
      <point x="590" y="143"></point>
    </contour>
    <contour>
      <point x="648" y="514" type="curve"></point>
      <point x="648" y="609" type="line" smooth="yes"></point>
      <point x="648" y="739"></point>
      <point x="624" y="852"></point>
      <point x="465" y="852" type="curve" smooth="yes"></point>
      <point x="419" y="852"></point>
      <point x="306" y="821"></point>
      <point x="306" y="762" type="curve" smooth="yes"></point>
      <point x="306" y="727"></point>
      <point x="340" y="700"></point>
      <point x="340" y="665" type="curve" smooth="yes"></point>
      <point x="340" y="612"></point>
      <point x="303" y="572"></point>
      <point x="249" y="572" type="curve" smooth="yes"></point>
      <point x="179" y="572"></point>
      <point x="140" y="633"></point>
      <point x="140" y="698" type="curve" smooth="yes"></point>
      <point x="140" y="866"></point>
      <point x="379" y="926"></point>
      <point x="510" y="926" type="curve" smooth="yes"></point>
      <point x="800" y="926"></point>
      <point x="835" y="797"></point>
      <point x="835" y="541" type="curve" smooth="yes"></point>
      <point x="835" y="514"></point>
      <point x="829" y="419"></point>
      <point x="829" y="324" type="curve" smooth="yes"></point>
      <point x="829" y="212"></point>
      <point x="838" y="99"></point>
      <point x="876" y="99" type="curve" smooth="yes"></point>
      <point x="908" y="99"></point>
      <point x="946" y="145"></point>
      <point x="964" y="168" type="curve"></point>
      <point x="1006" y="123" type="line"></point>
      <point x="956" y="40"></point>
      <point x="908" y="-20"></point>
      <point x="806" y="-20" type="curve" smooth="yes"></point>
      <point x="717" y="-20"></point>
      <point x="656" y="41"></point>
      <point x="651" y="129" type="curve"></point>
      <point x="569" y="40"></point>
      <point x="462" y="-20"></point>
      <point x="339" y="-20" type="curve" smooth="yes"></point>
      <point x="218" y="-20"></point>
      <point x="109" y="47"></point>
      <point x="109" y="178" type="curve" smooth="yes"></point>
      <point x="109" y="412"></point>
      <point x="476" y="469"></point>
    </contour>
  </outline>
</glyph>
<glyph name="b" format="1">
  <advance width="1143"></advance>
  <unicode hex="0062"></unicode>
  <outline>
    <contour>
      <point x="361" y="665" type="curve"></point>
      <point x="361" y="134" type="line" smooth="yes"></point>
      <point x="361" y="81"></point>
      <point x="372" y="65"></point>
      <point x="572" y="65" type="curve" smooth="yes"></point>
      <point x="808" y="65"></point>
      <point x="883" y="258"></point>
      <point x="883" y="412" type="curve" smooth="yes"></point>
      <point x="883" y="637"></point>
      <point x="775" y="794"></point>
      <point x="606" y="794" type="curve" smooth="yes"></point>
      <point x="504" y="794"></point>
      <point x="417" y="733"></point>
    </contour>
    <contour>
      <point x="175" y="134" type="curve" smooth="yes"></point>
      <point x="175" y="1163" type="line"></point>
      <point x="147" y="1208"></point>
      <point x="8" y="1254"></point>
      <point x="8" y="1254" type="curve"></point>
      <point x="10" y="1288" type="line"></point>
      <point x="275" y="1367" type="line"></point>
      <point x="361" y="1376" type="line"></point>
      <point x="361" y="758" type="line"></point>
      <point x="453" y="857"></point>
      <point x="552" y="926"></point>
      <point x="684" y="926" type="curve" smooth="yes"></point>
      <point x="921" y="926"></point>
      <point x="1069" y="691"></point>
      <point x="1069" y="462" type="curve" smooth="yes"></point>
      <point x="1069" y="180"></point>
      <point x="864" y="-13"></point>
      <point x="589" y="-13" type="curve" smooth="yes"></point>
      <point x="286" y="-13"></point>
      <point x="175" y="0"></point>
    </contour>
  </outline>
</glyph>
<glyph name="c" format="1">
  <advance width="993"></advance>
  <unicode hex="0063"></unicode>
  <outline>
    <contour>
      <point x="846" y="211" type="curve"></point>
      <point x="878" y="188" type="line"></point>
      <point x="835" y="49"></point>
      <point x="677" y="-20"></point>
      <point x="524" y="-20" type="curve" smooth="yes"></point>
      <point x="238" y="-20"></point>
      <point x="81" y="203"></point>
      <point x="81" y="448" type="curve" smooth="yes"></point>
      <point x="81" y="713"></point>
      <point x="274" y="926"></point>
      <point x="571" y="926" type="curve" smooth="yes"></point>
      <point x="738" y="926"></point>
      <point x="889" y="868"></point>
      <point x="889" y="737" type="curve" smooth="yes"></point>
      <point x="889" y="670"></point>
      <point x="828" y="642"></point>
      <point x="794" y="642" type="curve" smooth="yes"></point>
      <point x="644" y="642"></point>
      <point x="789" y="852"></point>
      <point x="556" y="852" type="curve" smooth="yes"></point>
      <point x="405" y="852"></point>
      <point x="264" y="734"></point>
      <point x="264" y="502" type="curve" smooth="yes"></point>
      <point x="264" y="298"></point>
      <point x="374" y="120"></point>
      <point x="581" y="120" type="curve" smooth="yes"></point>
      <point x="702" y="120"></point>
      <point x="767" y="149"></point>
    </contour>
  </outline>
</glyph>
<glyph name="d" format="1">
  <advance width="1238"></advance>
  <unicode hex="0064"></unicode>
  <outline>
    <contour>
      <point x="822" y="222" type="curve"></point>
      <point x="822" y="510" type="line" smooth="yes"></point>
      <point x="822" y="625"></point>
      <point x="811" y="706"></point>
      <point x="736" y="772" type="curve" smooth="yes"></point>
      <point x="684" y="818"></point>
      <point x="621" y="846"></point>
      <point x="557" y="846" type="curve" smooth="yes"></point>
      <point x="393" y="846"></point>
      <point x="289" y="671"></point>
      <point x="289" y="477" type="curve" smooth="yes"></point>
      <point x="289" y="296"></point>
      <point x="385" y="99"></point>
      <point x="585" y="99" type="curve" smooth="yes"></point>
      <point x="692" y="99"></point>
      <point x="771" y="154"></point>
    </contour>
    <contour>
      <point x="822" y="849" type="curve"></point>
      <point x="822" y="1175" type="line"></point>
      <point x="793" y="1220"></point>
      <point x="652" y="1266"></point>
      <point x="652" y="1266" type="curve"></point>
      <point x="654" y="1301" type="line"></point>
      <point x="936" y="1369" type="line"></point>
      <point x="1008" y="1376" type="line"></point>
      <point x="1008" y="199" type="line" smooth="yes"></point>
      <point x="1008" y="108"></point>
      <point x="1101" y="96"></point>
      <point x="1160" y="88" type="curve" smooth="yes"></point>
      <point x="1164" y="88"></point>
      <point x="1167" y="87"></point>
      <point x="1170" y="87" type="curve"></point>
      <point x="1170" y="32" type="line"></point>
      <point x="903" y="-12" type="line"></point>
      <point x="836" y="-12" type="line"></point>
      <point x="827" y="143" type="line"></point>
      <point x="733" y="35"></point>
      <point x="631" y="-20"></point>
      <point x="511" y="-20" type="curve" smooth="yes"></point>
      <point x="284" y="-20"></point>
      <point x="103" y="153"></point>
      <point x="103" y="414" type="curve" smooth="yes"></point>
      <point x="103" y="714"></point>
      <point x="302" y="923"></point>
      <point x="567" y="923" type="curve" smooth="yes"></point>
      <point x="657" y="923"></point>
      <point x="737" y="889"></point>
    </contour>
  </outline>
</glyph>
<glyph name="e" format="1">
  <advance width="1109"></advance>
  <unicode hex="0065"></unicode>
  <outline>
    <contour>
      <point x="329" y="585" type="curve"></point>
      <point x="682" y="594" type="line" smooth="yes"></point>
      <point x="709" y="595"></point>
      <point x="735" y="600"></point>
      <point x="756" y="610" type="curve"></point>
      <point x="747" y="765"></point>
      <point x="684" y="859"></point>
      <point x="563" y="859" type="curve" smooth="yes"></point>
      <point x="429" y="859"></point>
      <point x="346" y="735"></point>
    </contour>
    <contour>
      <point x="954" y="526" type="line"></point>
      <point x="322" y="526" type="line"></point>
      <point x="321" y="516"></point>
      <point x="321" y="506"></point>
      <point x="321" y="497" type="curve" smooth="yes"></point>
      <point x="321" y="235"></point>
      <point x="477" y="121"></point>
      <point x="660" y="121" type="curve" smooth="yes"></point>
      <point x="746" y="121"></point>
      <point x="825" y="145"></point>
      <point x="903" y="193" type="curve"></point>
      <point x="932" y="165" type="line"></point>
      <point x="882" y="44"></point>
      <point x="715" y="-20"></point>
      <point x="585" y="-20" type="curve" smooth="yes"></point>
      <point x="330" y="-20"></point>
      <point x="145" y="169"></point>
      <point x="145" y="447" type="curve" smooth="yes"></point>
      <point x="145" y="734"></point>
      <point x="354" y="926"></point>
      <point x="586" y="926" type="curve" smooth="yes"></point>
      <point x="779" y="926"></point>
      <point x="917" y="801"></point>
      <point x="943" y="620" type="curve"></point>
      <point x="950" y="591"></point>
      <point x="954" y="562"></point>
      <point x="954" y="535" type="curve" smooth="yes"></point>
    </contour>
  </outline>
</glyph>
<glyph name="f" format="1">
  <advance width="807"></advance>
  <unicode hex="0066"></unicode>
  <outline>
    <contour>
      <point x="678" y="818" type="line"></point>
      <point x="448" y="818" type="line"></point>
      <point x="448" y="259" type="line" smooth="yes"></point>
      <point x="448" y="198"></point>
      <point x="452" y="151"></point>
      <point x="470" y="112" type="curve"></point>
      <point x="487" y="61"></point>
      <point x="594" y="71"></point>
      <point x="646" y="50" type="curve"></point>
      <point x="646" y="35"></point>
      <point x="646" y="19"></point>
      <point x="645" y="0" type="curve"></point>
      <point x="99" y="0" type="line"></point>
      <point x="98" y="19"></point>
      <point x="97" y="35"></point>
      <point x="97" y="50" type="curve"></point>
      <point x="134" y="71"></point>
      <point x="226" y="62"></point>
      <point x="241" y="113" type="curve"></point>
      <point x="256" y="141"></point>
      <point x="262" y="175"></point>
      <point x="262" y="215" type="curve" smooth="yes"></point>
      <point x="262" y="818" type="line"></point>
      <point x="104" y="818" type="line"></point>
      <point x="104" y="899" type="line"></point>
      <point x="173" y="899" type="line" smooth="yes"></point>
      <point x="237" y="899"></point>
      <point x="257" y="901"></point>
      <point x="258" y="971" type="curve" smooth="yes"></point>
      <point x="263" y="1231"></point>
      <point x="392" y="1374"></point>
      <point x="618" y="1374" type="curve" smooth="yes"></point>
      <point x="751" y="1374"></point>
      <point x="860" y="1323"></point>
      <point x="860" y="1230" type="curve" smooth="yes"></point>
      <point x="860" y="1179"></point>
      <point x="826" y="1140"></point>
      <point x="766" y="1140" type="curve" smooth="yes"></point>
      <point x="658" y="1140"></point>
      <point x="680" y="1302"></point>
      <point x="575" y="1302" type="curve" smooth="yes"></point>
      <point x="489" y="1302"></point>
      <point x="448" y="1249"></point>
      <point x="448" y="1021" type="curve" smooth="yes"></point>
      <point x="448" y="899" type="line"></point>
      <point x="678" y="899" type="line"></point>
    </contour>
  </outline>
</glyph>
<glyph name="g" format="1">
  <advance width="1008"></advance>
  <unicode hex="0067"></unicode>
  <outline>
    <contour>
      <point x="603" y="1" type="curve" smooth="yes"></point>
      <point x="524" y="2" type="line" smooth="yes"></point>
      <point x="466" y="3"></point>
      <point x="409" y="8"></point>
      <point x="346" y="15" type="curve"></point>
      <point x="276" y="-45"></point>
      <point x="249" y="-94"></point>
      <point x="249" y="-137" type="curve" smooth="yes"></point>
      <point x="249" y="-242"></point>
      <point x="428" y="-268"></point>
      <point x="511" y="-268" type="curve" smooth="yes"></point>
      <point x="645" y="-268"></point>
      <point x="846" y="-223"></point>
      <point x="846" y="-118" type="curve" smooth="yes"></point>
      <point x="846" y="-47"></point>
      <point x="773" y="-2"></point>
    </contour>
    <contour>
      <point x="331" y="634" type="curve" smooth="yes"></point>
      <point x="331" y="491"></point>
      <point x="389" y="374"></point>
      <point x="520" y="374" type="curve" smooth="yes"></point>
      <point x="632" y="374"></point>
      <point x="680" y="466"></point>
      <point x="680" y="597" type="curve" smooth="yes"></point>
      <point x="680" y="763"></point>
      <point x="597" y="852"></point>
      <point x="492" y="852" type="curve" smooth="yes"></point>
      <point x="402" y="852"></point>
      <point x="331" y="764"></point>
    </contour>
    <contour>
      <point x="984" y="888" type="curve"></point>
      <point x="969" y="761" type="line"></point>
      <point x="916" y="777"></point>
      <point x="776" y="803"></point>
      <point x="776" y="803" type="curve"></point>
      <point x="776" y="803"></point>
      <point x="855" y="714"></point>
      <point x="855" y="626" type="curve" smooth="yes"></point>
      <point x="855" y="415"></point>
      <point x="673" y="308"></point>
      <point x="501" y="308" type="curve" smooth="yes"></point>
      <point x="463" y="308"></point>
      <point x="425" y="314"></point>
      <point x="373" y="326" type="curve"></point>
      <point x="342" y="302"></point>
      <point x="302" y="292"></point>
      <point x="302" y="243" type="curve" smooth="yes"></point>
      <point x="302" y="174"></point>
      <point x="447" y="189"></point>
      <point x="699" y="171" type="curve" smooth="yes"></point>
      <point x="860" y="159"></point>
      <point x="982" y="87"></point>
      <point x="982" y="-52" type="curve" smooth="yes"></point>
      <point x="982" y="-238"></point>
      <point x="754" y="-351"></point>
      <point x="485" y="-351" type="curve" smooth="yes"></point>
      <point x="247" y="-351"></point>
      <point x="119" y="-263"></point>
      <point x="119" y="-184" type="curve" smooth="yes"></point>
      <point x="119" y="-128"></point>
      <point x="162" y="-57"></point>
      <point x="272" y="24" type="curve"></point>
      <point x="199" y="54"></point>
      <point x="153" y="103"></point>
      <point x="153" y="163" type="curve" smooth="yes"></point>
      <point x="153" y="239"></point>
      <point x="223" y="297"></point>
      <point x="318" y="352" type="curve"></point>
      <point x="215" y="410"></point>
      <point x="153" y="498"></point>
      <point x="153" y="613" type="curve" smooth="yes"></point>
      <point x="153" y="796"></point>
      <point x="299" y="926"></point>
      <point x="500" y="926" type="curve" smooth="yes"></point>
      <point x="585" y="926"></point>
      <point x="657" y="906"></point>
      <point x="720" y="873" type="curve"></point>
      <point x="720" y="873"></point>
      <point x="846" y="892"></point>
      <point x="937" y="892" type="curve" smooth="yes"></point>
      <point x="960" y="892"></point>
      <point x="984" y="888"></point>
    </contour>
  </outline>
</glyph>
<glyph name="h" format="1">
  <advance width="1076"></advance>
  <unicode hex="0068"></unicode>
  <outline>
    <contour>
      <point x="958" y="568" type="curve" smooth="yes"></point>
      <point x="958" y="221" type="line" smooth="yes"></point>
      <point x="958" y="117"></point>
      <point x="1013" y="59"></point>
      <point x="1110" y="50" type="curve"></point>
      <point x="1110" y="34"></point>
      <point x="1108" y="0"></point>
      <point x="1108" y="0" type="curve"></point>
      <point x="616" y="0" type="line"></point>
      <point x="616" y="0"></point>
      <point x="614" y="34"></point>
      <point x="614" y="50" type="curve"></point>
      <point x="720" y="96"></point>
      <point x="772" y="66"></point>
      <point x="772" y="214" type="curve" smooth="yes"></point>
      <point x="772" y="577" type="line" smooth="yes"></point>
      <point x="772" y="713"></point>
      <point x="720" y="818"></point>
      <point x="580" y="818" type="curve" smooth="yes"></point>
      <point x="477" y="818"></point>
      <point x="386" y="752"></point>
      <point x="321" y="684" type="curve"></point>
      <point x="321" y="233" type="line" smooth="yes"></point>
      <point x="321" y="112"></point>
      <point x="372" y="62"></point>
      <point x="495" y="50" type="curve"></point>
      <point x="495" y="34"></point>
      <point x="494" y="0"></point>
      <point x="494" y="0" type="curve"></point>
      <point x="-38" y="0" type="line"></point>
      <point x="-38" y="0"></point>
      <point x="-40" y="34"></point>
      <point x="-40" y="50" type="curve"></point>
      <point x="71" y="59"></point>
      <point x="134" y="115"></point>
      <point x="134" y="233" type="curve" smooth="yes"></point>
      <point x="134" y="1164" type="line"></point>
      <point x="112" y="1196"></point>
      <point x="0" y="1253"></point>
      <point x="-36" y="1258" type="curve"></point>
      <point x="-36" y="1293" type="line"></point>
      <point x="249" y="1369" type="line"></point>
      <point x="321" y="1376" type="line"></point>
      <point x="321" y="768" type="line"></point>
      <point x="416" y="862"></point>
      <point x="508" y="926"></point>
      <point x="651" y="926" type="curve" smooth="yes"></point>
      <point x="825" y="926"></point>
      <point x="958" y="821"></point>
    </contour>
  </outline>
</glyph>
<glyph name="i" format="1">
  <advance width="666"></advance>
  <unicode hex="0069"></unicode>
  <outline>
    <contour>
      <point x="246" y="1224" type="curve" smooth="yes"></point>
      <point x="246" y="1288"></point>
      <point x="297" y="1340"></point>
      <point x="362" y="1340" type="curve" smooth="yes"></point>
      <point x="426" y="1340"></point>
      <point x="478" y="1288"></point>
      <point x="478" y="1224" type="curve" smooth="yes"></point>
      <point x="478" y="1159"></point>
      <point x="426" y="1108"></point>
      <point x="362" y="1108" type="curve" smooth="yes"></point>
      <point x="297" y="1108"></point>
      <point x="246" y="1159"></point>
    </contour>
    <contour>
      <point x="282" y="181" type="curve" smooth="yes"></point>
      <point x="282" y="713" type="line"></point>
      <point x="252" y="764"></point>
      <point x="130" y="797"></point>
      <point x="130" y="797" type="curve"></point>
      <point x="132" y="832" type="line"></point>
      <point x="409" y="912" type="line"></point>
      <point x="468" y="918" type="line"></point>
      <point x="468" y="220" type="line" smooth="yes"></point>
      <point x="468" y="188"></point>
      <point x="471" y="159"></point>
      <point x="478" y="135" type="curve"></point>
      <point x="490" y="68"></point>
      <point x="589" y="71"></point>
      <point x="617" y="50" type="curve"></point>
      <point x="617" y="33"></point>
      <point x="617" y="17"></point>
      <point x="616" y="0" type="curve"></point>
      <point x="120" y="0" type="line"></point>
      <point x="118" y="18"></point>
      <point x="118" y="34"></point>
      <point x="118" y="50" type="curve"></point>
      <point x="163" y="74"></point>
      <point x="282" y="83"></point>
    </contour>
  </outline>
</glyph>
<glyph name="j" format="1">
  <advance width="706"></advance>
  <unicode hex="006A"></unicode>
  <outline>
    <contour>
      <point x="280" y="1224" type="curve" smooth="yes"></point>
      <point x="280" y="1288"></point>
      <point x="331" y="1340"></point>
      <point x="395" y="1340" type="curve" smooth="yes"></point>
      <point x="460" y="1340"></point>
      <point x="511" y="1288"></point>
      <point x="511" y="1224" type="curve" smooth="yes"></point>
      <point x="511" y="1159"></point>
      <point x="460" y="1108"></point>
      <point x="395" y="1108" type="curve" smooth="yes"></point>
      <point x="331" y="1108"></point>
      <point x="280" y="1159"></point>
    </contour>
    <contour>
      <point x="316" y="88" type="curve"></point>
      <point x="316" y="710" type="line"></point>
      <point x="288" y="754"></point>
      <point x="189" y="786"></point>
      <point x="160" y="795" type="curve" smooth="yes"></point>
      <point x="158" y="796"></point>
      <point x="155" y="797"></point>
      <point x="154" y="797" type="curve"></point>
      <point x="154" y="832" type="line"></point>
      <point x="434" y="911" type="line"></point>
      <point x="502" y="918" type="line"></point>
      <point x="502" y="125" type="line" smooth="yes"></point>
      <point x="502" y="-168"></point>
      <point x="366" y="-282"></point>
      <point x="129" y="-308" type="curve"></point>
      <point x="114" y="-250" type="line"></point>
      <point x="278" y="-176"></point>
      <point x="305" y="-136"></point>
    </contour>
  </outline>
</glyph>
<glyph name="k" format="1">
  <advance width="1047"></advance>
  <unicode hex="006B"></unicode>
  <outline>
    <contour>
      <point x="187" y="120" type="curve" smooth="yes"></point>
      <point x="187" y="1122" type="line" smooth="yes"></point>
      <point x="187" y="1191"></point>
      <point x="-7" y="1195"></point>
      <point x="-7" y="1227" type="curve" smooth="yes"></point>
      <point x="-7" y="1232"></point>
      <point x="-6" y="1238"></point>
      <point x="-3" y="1244" type="curve"></point>
      <point x="393" y="1314" type="line"></point>
      <point x="393" y="475" type="line"></point>
      <point x="455" y="475" type="line"></point>
      <point x="805" y="778" type="line"></point>
      <point x="807" y="783"></point>
      <point x="807" y="787"></point>
      <point x="807" y="789" type="curve" smooth="yes"></point>
      <point x="807" y="852"></point>
      <point x="678" y="813"></point>
      <point x="678" y="855" type="curve" smooth="yes"></point>
      <point x="678" y="858"></point>
      <point x="679" y="863"></point>
      <point x="681" y="868" type="curve"></point>
      <point x="1075" y="868" type="line"></point>
      <point x="1078" y="855" type="line"></point>
      <point x="1078" y="840"></point>
      <point x="1048" y="828"></point>
      <point x="995" y="817" type="curve" smooth="yes"></point>
      <point x="946" y="806"></point>
      <point x="913" y="791"></point>
      <point x="893" y="774" type="curve" smooth="yes"></point>
      <point x="597" y="522" type="line"></point>
      <point x="931" y="94" type="line"></point>
      <point x="959" y="62"></point>
      <point x="1107" y="41"></point>
      <point x="1107" y="13" type="curve" smooth="yes"></point>
      <point x="1107" y="9"></point>
      <point x="1107" y="4"></point>
      <point x="1104" y="0" type="curve"></point>
      <point x="609" y="0" type="line"></point>
      <point x="606" y="6"></point>
      <point x="604" y="10"></point>
      <point x="604" y="12" type="curve" smooth="yes"></point>
      <point x="604" y="49"></point>
      <point x="721" y="24"></point>
      <point x="721" y="74" type="curve" smooth="yes"></point>
      <point x="721" y="77"></point>
      <point x="719" y="85"></point>
      <point x="708" y="97" type="curve"></point>
      <point x="458" y="420" type="line"></point>
      <point x="393" y="420" type="line"></point>
      <point x="393" y="116" type="line" smooth="yes"></point>
      <point x="393" y="32"></point>
      <point x="545" y="60"></point>
      <point x="545" y="14" type="curve" smooth="yes"></point>
      <point x="545" y="11"></point>
      <point x="544" y="7"></point>
      <point x="541" y="0" type="curve"></point>
      <point x="18" y="0" type="line"></point>
      <point x="15" y="7"></point>
      <point x="15" y="9"></point>
      <point x="15" y="12" type="curve" smooth="yes"></point>
      <point x="15" y="55"></point>
      <point x="187" y="44"></point>
    </contour>
  </outline>
</glyph>
<glyph name="l" format="1">
  <advance width="666"></advance>
  <unicode hex="006C"></unicode>
  <outline>
    <contour>
      <point x="373" y="1369" type="line"></point>
      <point x="445" y="1376" type="line"></point>
      <point x="445" y="234" type="line" smooth="yes"></point>
      <point x="445" y="126"></point>
      <point x="483" y="62"></point>
      <point x="594" y="50" type="curve"></point>
      <point x="594" y="33"></point>
      <point x="592" y="0"></point>
      <point x="592" y="0" type="curve"></point>
      <point x="100" y="0" type="line"></point>
      <point x="100" y="0"></point>
      <point x="99" y="34"></point>
      <point x="99" y="50" type="curve"></point>
      <point x="138" y="76"></point>
      <point x="239" y="74"></point>
      <point x="251" y="140" type="curve" smooth="yes"></point>
      <point x="256" y="167"></point>
      <point x="259" y="196"></point>
      <point x="259" y="228" type="curve" smooth="yes"></point>
      <point x="259" y="542"></point>
      <point x="258" y="855"></point>
      <point x="258" y="1169" type="curve"></point>
      <point x="231" y="1213"></point>
      <point x="93" y="1258"></point>
      <point x="93" y="1258" type="curve"></point>
      <point x="95" y="1293" type="line"></point>
    </contour>
  </outline>
</glyph>
<glyph name="m" format="1">
  <advance width="1765"></advance>
  <unicode hex="006D"></unicode>
  <outline>
    <contour>
      <point x="374" y="678" type="curve"></point>
      <point x="374" y="235" type="line" smooth="yes"></point>
      <point x="374" y="199"></point>
      <point x="376" y="168"></point>
      <point x="380" y="141" type="curve" smooth="yes"></point>
      <point x="390" y="75"></point>
      <point x="480" y="74"></point>
      <point x="526" y="50" type="curve"></point>
      <point x="526" y="33"></point>
      <point x="524" y="0"></point>
      <point x="524" y="0" type="curve"></point>
      <point x="32" y="0" type="line"></point>
      <point x="32" y="0"></point>
      <point x="31" y="34"></point>
      <point x="31" y="50" type="curve"></point>
      <point x="66" y="71"></point>
      <point x="163" y="72"></point>
      <point x="176" y="136" type="curve"></point>
      <point x="183" y="161"></point>
      <point x="187" y="190"></point>
      <point x="187" y="222" type="curve" smooth="yes"></point>
      <point x="187" y="724" type="line"></point>
      <point x="159" y="777"></point>
      <point x="23" y="813"></point>
      <point x="23" y="813" type="curve"></point>
      <point x="26" y="847" type="line"></point>
      <point x="304" y="915" type="line"></point>
      <point x="365" y="915" type="line"></point>
      <point x="374" y="771" type="line"></point>
      <point x="463" y="866"></point>
      <point x="552" y="926"></point>
      <point x="694" y="926" type="curve" smooth="yes"></point>
      <point x="825" y="926"></point>
      <point x="909" y="873"></point>
      <point x="954" y="765" type="curve"></point>
      <point x="1040" y="859"></point>
      <point x="1120" y="924"></point>
      <point x="1261" y="924" type="curve" smooth="yes"></point>
      <point x="1428" y="924"></point>
      <point x="1547" y="849"></point>
      <point x="1562" y="676" type="curve" smooth="yes"></point>
      <point x="1567" y="617"></point>
      <point x="1570" y="555"></point>
      <point x="1570" y="487" type="curve" smooth="yes"></point>
      <point x="1570" y="225" type="line" smooth="yes"></point>
      <point x="1570" y="194"></point>
      <point x="1572" y="165"></point>
      <point x="1577" y="140" type="curve" smooth="yes"></point>
      <point x="1588" y="78"></point>
      <point x="1672" y="73"></point>
      <point x="1713" y="50" type="curve"></point>
      <point x="1713" y="34"></point>
      <point x="1711" y="0"></point>
      <point x="1711" y="0" type="curve"></point>
      <point x="1230" y="0" type="line"></point>
      <point x="1230" y="0"></point>
      <point x="1228" y="34"></point>
      <point x="1228" y="50" type="curve"></point>
      <point x="1271" y="73"></point>
      <point x="1362" y="77"></point>
      <point x="1375" y="138" type="curve" smooth="yes"></point>
      <point x="1381" y="163"></point>
      <point x="1383" y="192"></point>
      <point x="1383" y="225" type="curve" smooth="yes"></point>
      <point x="1383" y="622" type="line" smooth="yes"></point>
      <point x="1383" y="746"></point>
      <point x="1317" y="819"></point>
      <point x="1198" y="819" type="curve" smooth="yes"></point>
      <point x="1108" y="819"></point>
      <point x="1021" y="753"></point>
      <point x="967" y="694" type="curve"></point>
      <point x="973" y="625"></point>
      <point x="973" y="551"></point>
      <point x="973" y="472" type="curve" smooth="yes"></point>
      <point x="973" y="230" type="line" smooth="yes"></point>
      <point x="973" y="198"></point>
      <point x="974" y="168"></point>
      <point x="979" y="142" type="curve" smooth="yes"></point>
      <point x="990" y="78"></point>
      <point x="1082" y="74"></point>
      <point x="1127" y="50" type="curve"></point>
      <point x="1127" y="33"></point>
      <point x="1125" y="0"></point>
      <point x="1125" y="0" type="curve"></point>
      <point x="625" y="0" type="line"></point>
      <point x="625" y="0"></point>
      <point x="623" y="34"></point>
      <point x="623" y="50" type="curve"></point>
      <point x="656" y="71"></point>
      <point x="748" y="68"></point>
      <point x="764" y="117" type="curve"></point>
      <point x="779" y="146"></point>
      <point x="786" y="182"></point>
      <point x="786" y="229" type="curve" smooth="yes"></point>
      <point x="786" y="577" type="line" smooth="yes"></point>
      <point x="786" y="720"></point>
      <point x="751" y="818"></point>
      <point x="620" y="818" type="curve" smooth="yes"></point>
      <point x="516" y="818"></point>
      <point x="440" y="753"></point>
    </contour>
  </outline>
</glyph>
<glyph name="n" format="1">
  <advance width="1090"></advance>
  <unicode hex="006E"></unicode>
  <outline>
    <contour>
      <point x="320" y="668" type="curve"></point>
      <point x="320" y="222" type="line" smooth="yes"></point>
      <point x="320" y="101"></point>
      <point x="385" y="61"></point>
      <point x="496" y="50" type="curve"></point>
      <point x="496" y="33"></point>
      <point x="494" y="0"></point>
      <point x="494" y="0" type="curve"></point>
      <point x="-20" y="0" type="line"></point>
      <point x="-20" y="0"></point>
      <point x="-21" y="16"></point>
      <point x="-21" y="32" type="curve" smooth="yes"></point>
      <point x="-21" y="40"></point>
      <point x="-21" y="48"></point>
      <point x="-20" y="54" type="curve"></point>
      <point x="69" y="75"></point>
      <point x="134" y="89"></point>
      <point x="134" y="185" type="curve" smooth="yes"></point>
      <point x="134" y="727" type="line"></point>
      <point x="108" y="778"></point>
      <point x="-24" y="811"></point>
      <point x="-24" y="811" type="curve"></point>
      <point x="-21" y="845" type="line"></point>
      <point x="251" y="913" type="line"></point>
      <point x="312" y="917" type="line"></point>
      <point x="323" y="755" type="line"></point>
      <point x="391" y="847"></point>
      <point x="509" y="926"></point>
      <point x="648" y="926" type="curve" smooth="yes"></point>
      <point x="839" y="926"></point>
      <point x="951" y="819"></point>
      <point x="960" y="599" type="curve" smooth="yes"></point>
      <point x="962" y="556"></point>
      <point x="963" y="512"></point>
      <point x="963" y="468" type="curve" smooth="yes"></point>
      <point x="963" y="245" type="line" smooth="yes"></point>
      <point x="963" y="73"></point>
      <point x="996" y="91"></point>
      <point x="1108" y="54" type="curve"></point>
      <point x="1109" y="48"></point>
      <point x="1109" y="40"></point>
      <point x="1109" y="32" type="curve" smooth="yes"></point>
      <point x="1109" y="16"></point>
      <point x="1108" y="0"></point>
      <point x="1108" y="0" type="curve"></point>
      <point x="615" y="0" type="line"></point>
      <point x="615" y="0"></point>
      <point x="613" y="34"></point>
      <point x="613" y="50" type="curve"></point>
      <point x="664" y="70"></point>
      <point x="759" y="76"></point>
      <point x="771" y="149" type="curve" smooth="yes"></point>
      <point x="775" y="172"></point>
      <point x="776" y="198"></point>
      <point x="776" y="226" type="curve" smooth="yes"></point>
      <point x="776" y="449" type="line" smooth="yes"></point>
      <point x="776" y="657"></point>
      <point x="776" y="818"></point>
      <point x="586" y="818" type="curve" smooth="yes"></point>
      <point x="483" y="818"></point>
      <point x="393" y="745"></point>
    </contour>
  </outline>
</glyph>
<glyph name="o" format="1">
  <advance width="1143"></advance>
  <unicode hex="006F"></unicode>
  <outline>
    <contour>
      <point x="303" y="515" type="curve" smooth="yes"></point>
      <point x="303" y="291"></point>
      <point x="413" y="58"></point>
      <point x="594" y="58" type="curve" smooth="yes"></point>
      <point x="770" y="58"></point>
      <point x="853" y="200"></point>
      <point x="853" y="388" type="curve" smooth="yes"></point>
      <point x="853" y="642"></point>
      <point x="742" y="859"></point>
      <point x="564" y="859" type="curve" smooth="yes"></point>
      <point x="417" y="859"></point>
      <point x="303" y="755"></point>
    </contour>
    <contour>
      <point x="103" y="456" type="curve" smooth="yes"></point>
      <point x="103" y="739"></point>
      <point x="322" y="926"></point>
      <point x="570" y="926" type="curve" smooth="yes"></point>
      <point x="834" y="926"></point>
      <point x="1050" y="747"></point>
      <point x="1050" y="457" type="curve" smooth="yes"></point>
      <point x="1050" y="166"></point>
      <point x="833" y="-20"></point>
      <point x="581" y="-20" type="curve" smooth="yes"></point>
      <point x="329" y="-20"></point>
      <point x="103" y="174"></point>
    </contour>
  </outline>
</glyph>
<glyph name="p" format="1">
  <advance width="1143"></advance>
  <unicode hex="0070"></unicode>
  <outline>
    <contour>
      <point x="370" y="677" type="curve"></point>
      <point x="370" y="347" type="line" smooth="yes"></point>
      <point x="370" y="185"></point>
      <point x="464" y="65"></point>
      <point x="630" y="65" type="curve" smooth="yes"></point>
      <point x="801" y="65"></point>
      <point x="885" y="208"></point>
      <point x="885" y="428" type="curve" smooth="yes"></point>
      <point x="885" y="680"></point>
      <point x="753" y="796"></point>
      <point x="611" y="796" type="curve" smooth="yes"></point>
      <point x="519" y="796"></point>
      <point x="435" y="740"></point>
    </contour>
    <contour>
      <point x="184" y="714" type="line"></point>
      <point x="156" y="764.503"></point>
      <point x="54" y="800.301"></point>
      <point x="19" y="814" type="curve"></point>
      <point x="19" y="848" type="line"></point>
      <point x="288" y="915" type="line"></point>
      <point x="356" y="918" type="line"></point>
      <point x="364" y="754" type="line"></point>
      <point x="450" y="850"></point>
      <point x="545" y="926"></point>
      <point x="684" y="926" type="curve" smooth="yes"></point>
      <point x="910" y="926"></point>
      <point x="1071" y="756"></point>
      <point x="1071" y="477" type="curve" smooth="yes"></point>
      <point x="1071" y="180"></point>
      <point x="874" y="-19"></point>
      <point x="615" y="-19" type="curve" smooth="yes"></point>
      <point x="525" y="-19"></point>
      <point x="441" y="14"></point>
      <point x="370" y="75" type="curve"></point>
      <point x="370" y="-144" type="line" smooth="yes"></point>
      <point x="370" y="-272"></point>
      <point x="431" y="-314"></point>
      <point x="554" y="-328" type="curve"></point>
      <point x="554" y="-344"></point>
      <point x="552" y="-378"></point>
      <point x="552" y="-378" type="curve"></point>
      <point x="26" y="-378" type="line"></point>
      <point x="26" y="-378"></point>
      <point x="24" y="-344"></point>
      <point x="24" y="-328" type="curve"></point>
      <point x="126" y="-314"></point>
      <point x="184" y="-261"></point>
      <point x="184" y="-153" type="curve" smooth="yes"></point>
    </contour>
  </outline>
</glyph>
<glyph name="q" format="1">
  <advance width="1210"></advance>
  <unicode hex="0071"></unicode>
  <outline>
    <contour>
      <point x="836" y="236" type="curve"></point>
      <point x="836" y="624" type="line"></point>
      <point x="819" y="759"></point>
      <point x="729" y="853"></point>
      <point x="572" y="853" type="curve" smooth="yes"></point>
      <point x="407" y="853"></point>
      <point x="310" y="701"></point>
      <point x="310" y="495" type="curve" smooth="yes"></point>
      <point x="310" y="257"></point>
      <point x="436" y="113"></point>
      <point x="593" y="113" type="curve" smooth="yes"></point>
      <point x="674" y="113"></point>
      <point x="748" y="149"></point>
    </contour>
    <contour>
      <point x="837" y="-186" type="curve" smooth="yes"></point>
      <point x="837" y="144" type="line"></point>
      <point x="721" y="23"></point>
      <point x="629" y="-22"></point>
      <point x="521" y="-22" type="curve" smooth="yes"></point>
      <point x="276" y="-22"></point>
      <point x="129" y="197"></point>
      <point x="129" y="432" type="curve" smooth="yes"></point>
      <point x="129" y="752"></point>
      <point x="329" y="924"></point>
      <point x="595" y="924" type="curve" smooth="yes"></point>
      <point x="711" y="924"></point>
      <point x="819" y="896"></point>
      <point x="914" y="848" type="curve"></point>
      <point x="914" y="885" type="line"></point>
      <point x="924" y="910"></point>
      <point x="973" y="926"></point>
      <point x="1001" y="926" type="curve" smooth="yes"></point>
      <point x="1017" y="926"></point>
      <point x="1022" y="915"></point>
      <point x="1022" y="898" type="curve" smooth="yes"></point>
      <point x="1022" y="-138" type="line" smooth="yes"></point>
      <point x="1022" y="-250"></point>
      <point x="1060" y="-309"></point>
      <point x="1176" y="-329" type="curve"></point>
      <point x="1176" y="-345"></point>
      <point x="1174" y="-378"></point>
      <point x="1174" y="-378" type="curve"></point>
      <point x="657" y="-378" type="line"></point>
      <point x="657" y="-378"></point>
      <point x="655" y="-344"></point>
      <point x="655" y="-329" type="curve"></point>
      <point x="722" y="-305"></point>
      <point x="837" y="-295"></point>
    </contour>
  </outline>
</glyph>
<glyph name="r" format="1">
  <advance width="958"></advance>
  <unicode hex="0072"></unicode>
  <outline>
    <contour>
      <point x="447" y="633" type="curve"></point>
      <point x="447" y="261" type="line" smooth="yes"></point>
      <point x="447" y="208"></point>
      <point x="449" y="164"></point>
      <point x="459" y="129" type="curve"></point>
      <point x="473" y="63"></point>
      <point x="581" y="71"></point>
      <point x="643" y="50" type="curve"></point>
      <point x="643" y="33"></point>
      <point x="642" y="0"></point>
      <point x="642" y="0" type="curve"></point>
      <point x="106" y="0" type="line"></point>
      <point x="106" y="0"></point>
      <point x="105" y="20"></point>
      <point x="105" y="36" type="curve" smooth="yes"></point>
      <point x="105" y="44"></point>
      <point x="105" y="51"></point>
      <point x="106" y="54" type="curve"></point>
      <point x="198" y="81"></point>
      <point x="260" y="70"></point>
      <point x="260" y="215" type="curve" smooth="yes"></point>
      <point x="260" y="723" type="line"></point>
      <point x="231" y="773"></point>
      <point x="103" y="805"></point>
      <point x="103" y="805" type="curve"></point>
      <point x="105" y="840" type="line"></point>
      <point x="371" y="916" type="line"></point>
      <point x="428" y="916" type="line"></point>
      <point x="444" y="732" type="line"></point>
      <point x="521" y="873"></point>
      <point x="599" y="921"></point>
      <point x="699" y="921" type="curve" smooth="yes"></point>
      <point x="782" y="921"></point>
      <point x="841" y="862"></point>
      <point x="841" y="811" type="curve" smooth="yes"></point>
      <point x="841" y="783"></point>
      <point x="816" y="692"></point>
      <point x="755" y="692" type="curve" smooth="yes"></point>
      <point x="667" y="692"></point>
      <point x="672" y="794"></point>
      <point x="610" y="794" type="curve" smooth="yes"></point>
      <point x="534" y="794"></point>
      <point x="493" y="709"></point>
    </contour>
  </outline>
</glyph>
<glyph name="s" format="1">
  <advance width="855"></advance>
  <unicode hex="0073"></unicode>
  <outline>
    <contour>
      <point x="680" y="853" type="curve"></point>
      <point x="686" y="631" type="line"></point>
      <point x="672" y="630"></point>
      <point x="653" y="630"></point>
      <point x="639" y="630" type="curve"></point>
      <point x="605" y="750"></point>
      <point x="533" y="859"></point>
      <point x="402" y="859" type="curve" smooth="yes"></point>
      <point x="321" y="859"></point>
      <point x="266" y="819"></point>
      <point x="266" y="738" type="curve" smooth="yes"></point>
      <point x="266" y="634"></point>
      <point x="416" y="575"></point>
      <point x="535" y="512" type="curve" smooth="yes"></point>
      <point x="677" y="436"></point>
      <point x="750" y="361"></point>
      <point x="750" y="237" type="curve" smooth="yes"></point>
      <point x="750" y="67"></point>
      <point x="614" y="-20"></point>
      <point x="431" y="-20" type="curve" smooth="yes"></point>
      <point x="322" y="-20"></point>
      <point x="200" y="8"></point>
      <point x="127" y="52" type="curve"></point>
      <point x="127" y="296" type="line"></point>
      <point x="158" y="300"></point>
      <point x="169" y="301"></point>
      <point x="180" y="301" type="curve"></point>
      <point x="207" y="169"></point>
      <point x="276" y="50"></point>
      <point x="422" y="50" type="curve" smooth="yes"></point>
      <point x="518" y="50"></point>
      <point x="592" y="102"></point>
      <point x="592" y="183" type="curve" smooth="yes"></point>
      <point x="592" y="296"></point>
      <point x="443" y="329"></point>
      <point x="265" y="441" type="curve" smooth="yes"></point>
      <point x="169" y="501"></point>
      <point x="112" y="573"></point>
      <point x="112" y="684" type="curve" smooth="yes"></point>
      <point x="112" y="843"></point>
      <point x="243" y="926"></point>
      <point x="408" y="926" type="curve" smooth="yes"></point>
      <point x="512" y="926"></point>
      <point x="606" y="900"></point>
    </contour>
  </outline>
</glyph>
<glyph name="t" format="1">
  <advance width="857"></advance>
  <unicode hex="0074"></unicode>
  <outline>
    <contour>
      <point x="704" y="815" type="line"></point>
      <point x="455" y="815" type="line"></point>
      <point x="455" y="314" type="line" smooth="yes"></point>
      <point x="455" y="135"></point>
      <point x="459" y="86"></point>
      <point x="587" y="86" type="curve" smooth="yes"></point>
      <point x="645" y="86"></point>
      <point x="704" y="101"></point>
      <point x="727" y="108" type="curve"></point>
      <point x="735" y="35" type="line"></point>
      <point x="687" y="12"></point>
      <point x="617" y="-20"></point>
      <point x="507" y="-20" type="curve" smooth="yes"></point>
      <point x="315" y="-20"></point>
      <point x="268" y="66"></point>
      <point x="268" y="317" type="curve" smooth="yes"></point>
      <point x="268" y="815" type="line"></point>
      <point x="119" y="815" type="line"></point>
      <point x="119" y="859" type="line"></point>
      <point x="263" y="917"></point>
      <point x="318" y="1002"></point>
      <point x="382" y="1101" type="curve" smooth="yes"></point>
      <point x="407" y="1141"></point>
      <point x="419" y="1149"></point>
      <point x="430" y="1149" type="curve" smooth="yes"></point>
      <point x="442" y="1149"></point>
      <point x="453" y="1139"></point>
      <point x="453" y="1110" type="curve" smooth="yes"></point>
      <point x="453" y="899" type="line"></point>
      <point x="704" y="899" type="line"></point>
    </contour>
  </outline>
</glyph>
<glyph name="u" format="1">
  <advance width="1210"></advance>
  <unicode hex="0075"></unicode>
  <outline>
    <contour>
      <point x="1162" y="85" type="curve"></point>
      <point x="1162" y="68"></point>
      <point x="1159" y="32"></point>
      <point x="1159" y="32" type="curve"></point>
      <point x="831" y="-15" type="line"></point>
      <point x="823" y="145" type="line"></point>
      <point x="718" y="28"></point>
      <point x="605" y="-20"></point>
      <point x="492" y="-20" type="curve" smooth="yes"></point>
      <point x="235" y="-20"></point>
      <point x="194" y="197"></point>
      <point x="194" y="429" type="curve" smooth="yes"></point>
      <point x="194" y="645" type="line" smooth="yes"></point>
      <point x="194" y="687"></point>
      <point x="191" y="719"></point>
      <point x="186" y="746" type="curve" smooth="yes"></point>
      <point x="175" y="803"></point>
      <point x="77" y="823"></point>
      <point x="29" y="828" type="curve"></point>
      <point x="29" y="878" type="line"></point>
      <point x="380" y="904" type="line"></point>
      <point x="380" y="440" type="line" smooth="yes"></point>
      <point x="380" y="190"></point>
      <point x="421" y="98"></point>
      <point x="556" y="98" type="curve" smooth="yes"></point>
      <point x="645" y="98"></point>
      <point x="731" y="134"></point>
      <point x="818" y="220" type="curve"></point>
      <point x="818" y="643" type="line" smooth="yes"></point>
      <point x="818" y="686"></point>
      <point x="815" y="719"></point>
      <point x="810" y="747" type="curve" smooth="yes"></point>
      <point x="799" y="804"></point>
      <point x="691" y="824"></point>
      <point x="644" y="829" type="curve"></point>
      <point x="644" y="878" type="line"></point>
      <point x="1004" y="904" type="line"></point>
      <point x="1004" y="201" type="line" smooth="yes"></point>
      <point x="1004" y="112"></point>
      <point x="1081" y="99"></point>
    </contour>
  </outline>
</glyph>
<glyph name="v" format="1">
  <advance width="1109"></advance>
  <unicode hex="0076"></unicode>
  <outline>
    <contour>
      <point x="876" y="706" type="curve"></point>
      <point x="566" y="-12" type="line"></point>
      <point x="558" y="-16"></point>
      <point x="548" y="-18"></point>
      <point x="536" y="-18" type="curve" smooth="yes"></point>
      <point x="523" y="-18"></point>
      <point x="513" y="-16"></point>
      <point x="506" y="-12" type="curve"></point>
      <point x="200" y="724" type="line" smooth="yes"></point>
      <point x="152" y="840"></point>
      <point x="132" y="813"></point>
      <point x="60" y="847" type="curve"></point>
      <point x="60" y="899" type="line"></point>
      <point x="509" y="899" type="line"></point>
      <point x="510" y="882"></point>
      <point x="514" y="860"></point>
      <point x="514" y="845" type="curve"></point>
      <point x="447" y="827"></point>
      <point x="385" y="810"></point>
      <point x="385" y="760" type="curve" smooth="yes"></point>
      <point x="385" y="752"></point>
      <point x="387" y="743"></point>
      <point x="390" y="733" type="curve" smooth="yes"></point>
      <point x="594" y="230" type="line"></point>
      <point x="766" y="649" type="line" smooth="yes"></point>
      <point x="781" y="686"></point>
      <point x="794" y="728"></point>
      <point x="794" y="755" type="curve"></point>
      <point x="790" y="805"></point>
      <point x="743" y="824"></point>
      <point x="664" y="843" type="curve"></point>
      <point x="663" y="849"></point>
      <point x="663" y="858"></point>
      <point x="663" y="866" type="curve" smooth="yes"></point>
      <point x="663" y="883"></point>
      <point x="664" y="899"></point>
      <point x="664" y="899" type="curve"></point>
      <point x="1036" y="899" type="line"></point>
      <point x="1038" y="882"></point>
      <point x="1038" y="866"></point>
      <point x="1038" y="848" type="curve"></point>
      <point x="991" y="818"></point>
      <point x="927" y="821"></point>
    </contour>
  </outline>
</glyph>
<glyph name="w" format="1">
  <advance width="1311"></advance>
  <unicode hex="0077"></unicode>
  <outline>
    <contour>
      <point x="231" y="726" type="curve" smooth="yes"></point>
      <point x="231" y="723"></point>
      <point x="231" y="722"></point>
      <point x="232" y="719" type="curve" smooth="yes"></point>
      <point x="417" y="243" type="line"></point>
      <point x="600" y="688" type="line"></point>
      <point x="577" y="769"></point>
      <point x="526" y="846"></point>
      <point x="432" y="851" type="curve"></point>
      <point x="434" y="899" type="line"></point>
      <point x="876" y="899" type="line"></point>
      <point x="877" y="882"></point>
      <point x="878" y="867"></point>
      <point x="878" y="851" type="curve"></point>
      <point x="828" y="827"></point>
      <point x="763" y="825"></point>
      <point x="763" y="768" type="curve" smooth="yes"></point>
      <point x="763" y="749"></point>
      <point x="771" y="725"></point>
      <point x="781" y="698" type="curve" smooth="yes"></point>
      <point x="944" y="251" type="line"></point>
      <point x="1100" y="672" type="line" smooth="yes"></point>
      <point x="1110" y="698"></point>
      <point x="1119" y="727"></point>
      <point x="1119" y="754" type="curve" smooth="yes"></point>
      <point x="1119" y="830"></point>
      <point x="1075" y="825"></point>
      <point x="998" y="848" type="curve"></point>
      <point x="997" y="855"></point>
      <point x="996" y="863"></point>
      <point x="996" y="872" type="curve" smooth="yes"></point>
      <point x="996" y="881"></point>
      <point x="997" y="890"></point>
      <point x="998" y="899" type="curve"></point>
      <point x="1349" y="899" type="line"></point>
      <point x="1349" y="846" type="line"></point>
      <point x="1290" y="838"></point>
      <point x="1211" y="768"></point>
      <point x="1191" y="714" type="curve" smooth="yes"></point>
      <point x="921" y="-14" type="line"></point>
      <point x="914" y="-18"></point>
      <point x="904" y="-20"></point>
      <point x="891" y="-20" type="curve" smooth="yes"></point>
      <point x="878" y="-20"></point>
      <point x="868" y="-18"></point>
      <point x="860" y="-14" type="curve"></point>
      <point x="633" y="596" type="line"></point>
      <point x="392" y="-14" type="line"></point>
      <point x="384" y="-18"></point>
      <point x="374" y="-20"></point>
      <point x="361" y="-20" type="curve" smooth="yes"></point>
      <point x="347" y="-20"></point>
      <point x="336" y="-18"></point>
      <point x="329" y="-14" type="curve"></point>
      <point x="50" y="699" type="line" smooth="yes"></point>
      <point x="19" y="778"></point>
      <point x="-3" y="832"></point>
      <point x="-87" y="850" type="curve"></point>
      <point x="-85" y="899" type="line"></point>
      <point x="326" y="899" type="line"></point>
      <point x="327" y="882"></point>
      <point x="327" y="867"></point>
      <point x="327" y="851" type="curve"></point>
      <point x="277" y="834"></point>
      <point x="226" y="813"></point>
      <point x="226" y="758" type="curve" smooth="yes"></point>
      <point x="226" y="749"></point>
      <point x="227" y="738"></point>
    </contour>
  </outline>
</glyph>
<glyph name="x" format="1">
  <advance width="1109"></advance>
  <unicode hex="0078"></unicode>
  <outline>
    <contour>
      <point x="239" y="152" type="curve" smooth="yes"></point>
      <point x="486" y="431" type="line"></point>
      <point x="219" y="772" type="line" smooth="yes"></point>
      <point x="181" y="821"></point>
      <point x="120" y="836"></point>
      <point x="90" y="851" type="curve"></point>
      <point x="90" y="866"></point>
      <point x="91" y="899"></point>
      <point x="91" y="899" type="curve"></point>
      <point x="534" y="899" type="line"></point>
      <point x="534" y="899"></point>
      <point x="535" y="866"></point>
      <point x="535" y="851" type="curve"></point>
      <point x="486" y="836"></point>
      <point x="447" y="811"></point>
      <point x="447" y="779" type="curve" smooth="yes"></point>
      <point x="447" y="768"></point>
      <point x="451" y="761"></point>
      <point x="456" y="748" type="curve"></point>
      <point x="596" y="561" type="line"></point>
      <point x="718" y="710" type="line" smooth="yes"></point>
      <point x="739" y="736"></point>
      <point x="749" y="756"></point>
      <point x="749" y="774" type="curve" smooth="yes"></point>
      <point x="749" y="809"></point>
      <point x="708" y="839"></point>
      <point x="648" y="848" type="curve"></point>
      <point x="648" y="899" type="line"></point>
      <point x="1018" y="899" type="line"></point>
      <point x="1018" y="899"></point>
      <point x="1019" y="866"></point>
      <point x="1019" y="850" type="curve"></point>
      <point x="978" y="833"></point>
      <point x="905" y="819"></point>
      <point x="851" y="753" type="curve" smooth="yes"></point>
      <point x="645" y="501" type="line"></point>
      <point x="915" y="159" type="line" smooth="yes"></point>
      <point x="974" y="84"></point>
      <point x="997" y="75"></point>
      <point x="1070" y="47" type="curve"></point>
      <point x="1070" y="33"></point>
      <point x="1068" y="0"></point>
      <point x="1068" y="0" type="curve"></point>
      <point x="591" y="0" type="line"></point>
      <point x="591" y="0"></point>
      <point x="590" y="32"></point>
      <point x="590" y="48" type="curve"></point>
      <point x="634" y="71"></point>
      <point x="708" y="75"></point>
      <point x="708" y="115" type="curve" smooth="yes"></point>
      <point x="708" y="129"></point>
      <point x="700" y="146"></point>
      <point x="683" y="165" type="curve"></point>
      <point x="527" y="376" type="line"></point>
      <point x="391" y="225" type="line" smooth="yes"></point>
      <point x="361" y="192"></point>
      <point x="335" y="143"></point>
      <point x="335" y="113" type="curve" smooth="yes"></point>
      <point x="335" y="77"></point>
      <point x="391" y="63"></point>
      <point x="450" y="51" type="curve"></point>
      <point x="451" y="45"></point>
      <point x="451" y="38"></point>
      <point x="451" y="30" type="curve" smooth="yes"></point>
      <point x="451" y="15"></point>
      <point x="450" y="0"></point>
      <point x="450" y="0" type="curve"></point>
      <point x="68" y="0" type="line"></point>
      <point x="68" y="0"></point>
      <point x="66" y="31"></point>
      <point x="66" y="48" type="curve"></point>
      <point x="99" y="67"></point>
      <point x="182" y="87"></point>
    </contour>
  </outline>
</glyph>
<glyph name="y" format="1">
  <advance width="966"></advance>
  <unicode hex="0079"></unicode>
  <outline>
    <contour>
      <point x="450" y="0" type="curve"></point>
      <point x="138" y="712" type="line" smooth="yes"></point>
      <point x="74" y="857"></point>
      <point x="50" y="818"></point>
      <point x="-19" y="847" type="curve"></point>
      <point x="-19" y="899" type="line"></point>
      <point x="449" y="899" type="line"></point>
      <point x="449" y="899"></point>
      <point x="454" y="874"></point>
      <point x="454" y="867" type="curve" smooth="yes"></point>
      <point x="454" y="849"></point>
      <point x="417" y="840"></point>
      <point x="402" y="830" type="curve"></point>
      <point x="346" y="826"></point>
      <point x="319" y="810"></point>
      <point x="319" y="776" type="curve" smooth="yes"></point>
      <point x="319" y="762"></point>
      <point x="325" y="743"></point>
      <point x="332" y="721" type="curve"></point>
      <point x="539" y="227" type="line"></point>
      <point x="708" y="675" type="line" smooth="yes"></point>
      <point x="718" y="701"></point>
      <point x="723" y="723"></point>
      <point x="723" y="743" type="curve" smooth="yes"></point>
      <point x="723" y="801"></point>
      <point x="682" y="828"></point>
      <point x="593" y="843" type="curve"></point>
      <point x="592" y="849"></point>
      <point x="592" y="858"></point>
      <point x="592" y="866" type="curve" smooth="yes"></point>
      <point x="592" y="883"></point>
      <point x="593" y="899"></point>
      <point x="593" y="899" type="curve"></point>
      <point x="960" y="899" type="line"></point>
      <point x="960" y="899"></point>
      <point x="961" y="866"></point>
      <point x="961" y="848" type="curve"></point>
      <point x="916" y="812"></point>
      <point x="846" y="827"></point>
      <point x="812" y="707" type="curve"></point>
      <point x="457" y="-167" type="line" smooth="yes"></point>
      <point x="403" y="-301"></point>
      <point x="331" y="-395"></point>
      <point x="199" y="-395" type="curve" smooth="yes"></point>
      <point x="111" y="-395"></point>
      <point x="45" y="-351"></point>
      <point x="45" y="-279" type="curve" smooth="yes"></point>
      <point x="45" y="-224"></point>
      <point x="90" y="-186"></point>
      <point x="144" y="-186" type="curve" smooth="yes"></point>
      <point x="219" y="-186"></point>
      <point x="218" y="-257"></point>
      <point x="282" y="-257" type="curve" smooth="yes"></point>
      <point x="364" y="-257"></point>
      <point x="409" y="-129"></point>
    </contour>
  </outline>
</glyph>
<glyph name="z" format="1">
  <advance width="952"></advance>
  <unicode hex="007A"></unicode>
  <outline>
    <contour>
      <point x="840" y="840" type="line"></point>
      <point x="295" y="60" type="line"></point>
      <point x="489" y="60" type="line" smooth="yes"></point>
      <point x="554" y="60"></point>
      <point x="609" y="71"></point>
      <point x="660" y="86" type="curve" smooth="yes"></point>
      <point x="737" y="109"></point>
      <point x="759" y="232"></point>
      <point x="806" y="279" type="curve"></point>
      <point x="823" y="279"></point>
      <point x="840" y="277"></point>
      <point x="857" y="277" type="curve"></point>
      <point x="828" y="-11" type="line"></point>
      <point x="828" y="-11"></point>
      <point x="703" y="0"></point>
      <point x="669" y="0" type="curve" smooth="yes"></point>
      <point x="61" y="0" type="line"></point>
      <point x="47" y="33" type="line"></point>
      <point x="624" y="838" type="line"></point>
      <point x="455" y="838" type="line" smooth="yes"></point>
      <point x="411" y="838"></point>
      <point x="368" y="838"></point>
      <point x="330" y="829" type="curve"></point>
      <point x="240" y="818"></point>
      <point x="204" y="707"></point>
      <point x="141" y="662" type="curve"></point>
      <point x="96" y="664" type="line"></point>
      <point x="117" y="925" type="line"></point>
      <point x="186" y="899"></point>
      <point x="242" y="899"></point>
      <point x="284" y="899" type="curve" smooth="yes"></point>
      <point x="785" y="899" type="line"></point>
      <point x="804" y="898"></point>
      <point x="839" y="895"></point>
      <point x="840" y="895" type="curve"></point>
    </contour>
  </outline>
</glyph>
<glyph name="braceleft" format="1">
  <advance width="762"></advance>
  <unicode hex="007B"></unicode>
  <outline>
    <contour>
      <point x="151" y="619" type="curve"></point>
      <point x="151" y="637"></point>
      <point x="157" y="657"></point>
      <point x="173" y="667" type="curve"></point>
      <point x="292" y="677"></point>
      <point x="363" y="752"></point>
      <point x="363" y="871" type="curve" smooth="yes"></point>
      <point x="363" y="967"></point>
      <point x="335" y="1061"></point>
      <point x="335" y="1157" type="curve" smooth="yes"></point>
      <point x="335" y="1372"></point>
      <point x="478" y="1484"></point>
      <point x="684" y="1497" type="curve"></point>
      <point x="687" y="1488"></point>
      <point x="689" y="1477"></point>
      <point x="689" y="1467" type="curve" smooth="yes"></point>
      <point x="689" y="1458"></point>
      <point x="687" y="1448"></point>
      <point x="684" y="1440" type="curve"></point>
      <point x="575" y="1425"></point>
      <point x="492" y="1382"></point>
      <point x="492" y="1261" type="curve" smooth="yes"></point>
      <point x="492" y="1162"></point>
      <point x="534" y="1067"></point>
      <point x="534" y="967" type="curve" smooth="yes"></point>
      <point x="534" y="794"></point>
      <point x="423" y="680"></point>
      <point x="264" y="632" type="curve"></point>
      <point x="422" y="585"></point>
      <point x="534" y="468"></point>
      <point x="534" y="297" type="curve" smooth="yes"></point>
      <point x="534" y="194"></point>
      <point x="490" y="97"></point>
      <point x="490" y="-4" type="curve" smooth="yes"></point>
      <point x="490" y="-117"></point>
      <point x="586" y="-160"></point>
      <point x="684" y="-176" type="curve"></point>
      <point x="689" y="-184"></point>
      <point x="692" y="-194"></point>
      <point x="692" y="-205" type="curve" smooth="yes"></point>
      <point x="692" y="-215"></point>
      <point x="689" y="-225"></point>
      <point x="684" y="-233" type="curve"></point>
      <point x="467" y="-220"></point>
      <point x="336" y="-101"></point>
      <point x="336" y="120" type="curve" smooth="yes"></point>
      <point x="336" y="216"></point>
      <point x="361" y="310"></point>
      <point x="361" y="406" type="curve" smooth="yes"></point>
      <point x="361" y="583"></point>
      <point x="248" y="547"></point>
    </contour>
  </outline>
</glyph>
<glyph name="bar" format="1">
  <advance width="571"></advance>
  <unicode hex="007C"></unicode>
  <outline>
    <contour>
      <point x="320" y="1467" type="line"></point>
      <point x="337" y="1395.08"></point>
      <point x="351" y="1318.5"></point>
      <point x="351" y="1244" type="curve" smooth="yes"></point>
      <point x="351" y="-88" type="line" smooth="yes"></point>
      <point x="351" y="-164"></point>
      <point x="350" y="-244"></point>
      <point x="320" y="-315" type="curve"></point>
      <point x="287" y="-314"></point>
      <point x="264" y="-301"></point>
      <point x="236" y="-283" type="curve"></point>
      <point x="236" y="1431" type="line"></point>
      <point x="254" y="1457"></point>
      <point x="285" y="1467"></point>
      <point x="316" y="1467" type="curve" smooth="yes"></point>
    </contour>
  </outline>
</glyph>
<glyph name="braceright" format="1">
  <advance width="841"></advance>
  <unicode hex="007D"></unicode>
  <outline>
    <contour>
      <point x="736" y="667" type="curve"></point>
      <point x="752" y="657"></point>
      <point x="759" y="637"></point>
      <point x="759" y="619" type="curve"></point>
      <point x="652" y="548"></point>
      <point x="546" y="580"></point>
      <point x="546" y="399" type="curve" smooth="yes"></point>
      <point x="546" y="307"></point>
      <point x="573" y="218"></point>
      <point x="573" y="127" type="curve" smooth="yes"></point>
      <point x="573" y="-97"></point>
      <point x="448" y="-219"></point>
      <point x="226" y="-233" type="curve"></point>
      <point x="221" y="-228"></point>
      <point x="218" y="-219"></point>
      <point x="218" y="-212" type="curve" smooth="yes"></point>
      <point x="218" y="-199"></point>
      <point x="218" y="-187"></point>
      <point x="226" y="-176" type="curve"></point>
      <point x="325" y="-161"></point>
      <point x="419" y="-117"></point>
      <point x="419" y="-4" type="curve" smooth="yes"></point>
      <point x="419" y="97"></point>
      <point x="375" y="194"></point>
      <point x="375" y="297" type="curve" smooth="yes"></point>
      <point x="375" y="468"></point>
      <point x="487" y="585"></point>
      <point x="645" y="632" type="curve"></point>
      <point x="485" y="679"></point>
      <point x="375" y="795"></point>
      <point x="375" y="967" type="curve" smooth="yes"></point>
      <point x="375" y="1067"></point>
      <point x="417" y="1162"></point>
      <point x="417" y="1261" type="curve" smooth="yes"></point>
      <point x="417" y="1380"></point>
      <point x="334" y="1425"></point>
      <point x="226" y="1440" type="curve"></point>
      <point x="222" y="1448"></point>
      <point x="220" y="1458"></point>
      <point x="220" y="1467" type="curve" smooth="yes"></point>
      <point x="220" y="1477"></point>
      <point x="223" y="1488"></point>
      <point x="226" y="1497" type="curve"></point>
      <point x="431" y="1484"></point>
      <point x="574" y="1372"></point>
      <point x="574" y="1157" type="curve" smooth="yes"></point>
      <point x="574" y="1059"></point>
      <point x="546" y="964"></point>
      <point x="546" y="866" type="curve" smooth="yes"></point>
      <point x="546" y="748"></point>
      <point x="620" y="676"></point>
    </contour>
  </outline>
</glyph>
<glyph name="asciitilde" format="1">
  <advance width="1160"></advance>
  <unicode hex="007E"></unicode>
  <outline>
    <contour>
      <point x="912" y="846" type="curve"></point>
      <point x="1001" y="846" type="line"></point>
      <point x="1001" y="691"></point>
      <point x="934" y="583"></point>
      <point x="800" y="583" type="curve" smooth="yes"></point>
      <point x="638" y="583"></point>
      <point x="479" y="713"></point>
      <point x="369" y="713" type="curve" smooth="yes"></point>
      <point x="296" y="713"></point>
      <point x="260" y="665"></point>
      <point x="252" y="596" type="curve"></point>
      <point x="161" y="596" type="line"></point>
      <point x="173" y="731"></point>
      <point x="225" y="851"></point>
      <point x="378" y="851" type="curve" smooth="yes"></point>
      <point x="520" y="851"></point>
      <point x="693" y="718"></point>
      <point x="797" y="718" type="curve" smooth="yes"></point>
      <point x="879" y="718"></point>
      <point x="909" y="770"></point>
    </contour>
  </outline>
</glyph>
